<mxfile host="app.diagrams.net" modified="2024-02-06T00:23:36.113Z" agent="Mozilla/5.0 (Windows NT 10.0; Win64; x64) AppleWebKit/537.36 (KHTML, like Gecko) Chrome/121.0.0.0 Safari/537.36" etag="pmjB43GO_jNuQivJKUxI" version="23.0.2" type="device">
  <diagram name="Page-1" id="Cb4sce1EqoaKNKObucXL">
    <mxGraphModel dx="3368" dy="2410" grid="1" gridSize="10" guides="1" tooltips="1" connect="1" arrows="1" fold="1" page="1" pageScale="1" pageWidth="850" pageHeight="1100" math="0" shadow="0">
      <root>
        <mxCell id="0" />
        <mxCell id="1" parent="0" />
        <mxCell id="TgTsaI6apELg38WCedww-2" value="" style="shape=image;verticalLabelPosition=bottom;labelBackgroundColor=default;verticalAlign=top;aspect=fixed;imageAspect=0;image=data:image/png,iVBORw0KGgoAAAANSUhEUgAAAxMAAAMNCAYAAADjhim7AAAAAXNSR0IArs4c6QAAAARnQU1BAACxjwv8YQUAAAAJcEhZcwAADsMAAA7DAcdvqGQAAL4bSURBVHhe7N0JfB1Xff/9I8mSbMmSvG+SEydO8FKWlCZ22j7QJnZYCg/OVujy9xKg/38f26GFwD+JA2W1Y8pSwEme/x8o2E6fQgtZnD60BS8pUCBeypMUajtAEpJYjp3FsS2vkiU/93s0P+V4PPfq3qsr6S6fd143d+bMmTNzr65nzm/OOTNV7e3tZx0AAAAA5Kg6egcAAACAnBBMAAAAAMgLwQQAAACAvBBMAAAAAMgLwQQAAACAvBBMAAAAAMgLwQQAAACAvBBMAAAAAMgLwQQAAACAvBBMAAAAAMgLwQQAAACAvBBMAAAAAMgLwQQAAACAvBBMAAAAAMgLwQQAAACAvBBMAAAAAMgLwQQAAACAvBBMAAAAAMgLwQQAAACAvBBMAAAAAMgLwQQAAACAvBBMAAAAAMgLwQQAAACAvBBMAAAAAMgLwQQAAACAvFS1t7efjaaLziPPvuy+/fPnozkAQLbmTGxw77l8ejQHAMDgKNpg4uzZs+4ffrbf3fq9X0UpAIBszZvW5P7xj3/TVVVVRSkAABReUQcT9/7Hr91H/u2ZKAUAkK3fmtLgvvGHr3X19fVRClCa/nbXPve9X70UzQHIRfPIWveVa+dGc4OjaIOJ7u5u9//89Bn3ke8TTABArl4/aZT7+z98jRs1alSUApSenp4e98F/fdzdt5suz0A+Wpvr3Q/efbkbMWJElFJ4RTsAm6Z5ABgADqEoA7qweObMmWgOQK7U06erqyuaGxxFfTens6n/AAB54PCJMqHKEID8DfYF+qINJvzBg+MHAOSNShjKAj9jYEDUXXAwFXU3J7o6AUD+OIaiLPAzBgakolsm6OYEAHmiAgYAFW8oWqiLeswEACBPXIsBAKQMdkBR1N2cOBkCAAAA+RmK7q5F3c2J/r4AAFS4Er2weOG4Rvd7l0zyrzGjaqPU7M1Irf/td7/B/dWbXx2lDB3tu15D5XWtY/z3NJBt6ju27ztdOcoz1J+tGFRXD251v6gfWvd3//G0+6sfPBulAACy9frJo9zf38hD61DadH/8D/zzHvfQL1+OUoqfKrMfefNr3O/NnBSl9Nqw8yn3ye/+zD196HiUktnnrn29e98bZ/np2g98w78PBVW0f/Xhd/jpBXdvdT94YvAeGKiA6at/fOU535W+o0989+fRXP+SypDH9r/sbnngp+77wf5/JBWY/VXqb/Pr1N/g0k89FKWWt2lNdW7bkssG9VxQ1N2cBjuSAgAAKBRV/rcsX9BXsVXgYMHD0isu8suyvSq+7vuPu+//6nn3gQf+I0opPxYEqHK/6Wf73OGTXT4Qe8er26Icmb2udazbectbE7/v100b67asWOCWpL73SuZvaFSpYyaG4sNXIjXxLXpNq3/p6kk+/MFyxdVD3kxozZP5NBfnI2wyzZfKUPPtknkX+XLS7bs+11B+tiThfg70bxv/PHq3NAwRDp/AkNIVcrUmyGPtL7tLPvmQu+RTva9LU9Oq5CrP3/7RfJ+nP79++bhbeM9Wt+6Hv4hSyo8FAQvv3upu/PoP3Se++zM//45UHSUb9930Bn9+UTCiVpTw+36s/bDPo7/JcJ5bh5suzg/2sIGivvRPMFE4+of0+Wt/y/3yw4vct296o3/pCskvP/yOnPtj6h/m782c3Nf8OlRuTm1PTa/fTh08Bps+2wurb/TfkX1Pr5s2JlqaHTWl6vvedctbUyePK305KlNXYuKV6q2pZfps2V6NKaRFr271+xXup/YlaT+zFf88unqkeb0wRBhyBgwpXVEXVWxv+NoP3dOpYMAoMHjPNx7x0793yWT32uh84s9rH9Hxdr6/gq5jcdfn/9gfexeljp9apot3RmMolKZjq52nlN+O1zrW6mq80rQs6fyuc5PKUB69VL7OA0nGjKrzdQfbTnghUct2ffCtvqz41X9dlFK6XtlU5I+c6vTvl6X2XxSM9UfbtH1RMBJ2x9L3fePXfuCntZ/9nVsV5Ol7s8+ZqW6k7z3+/eV7rhwKFd0yweDrwtE/ZFUUb37jq/y0mhHVdGpXSXQAVCUyWx944Kduw44n3Ze+/3iUUl50MLarS5t+9qxvetX39O13v9GnZeNvUwd29c2Mf99iTd3ZHGAHmw7G+ly2n/q7al/F9hMA0D91q5GHfr7vnEDCqO++xj7o9Z/7e6+a69h74dhGf4FO543wvNASLbtw7OgopbdirLT3pc7ndp4SHa91lV4v2w+VpfN7WNFXYKBzU8vIOn9u0/Fe29Z5ID7mQFShXpxa/8jJ3sq+8u665S2+8nw4lfZY+yG/P/FgYskVF/v0X790zJ9b0rHzzVdTdRDtm8pRMPbQz9p9eibveE1vgPD9Xx1M/L4VUKi1wo/7iLaTROf3sKuU9snqRluWvxLIifZR37s+mwIendf1nehCWdL3VwyGoj5d3IMSiCcK4nOpH79Fze/5+0fcxDu+7ZtO1RT4iX/tHeSk7i3xg0EoPMCt++Hj7r3f3J74j7ccvCO6QqOK9Y1f/3ff9KrmUh1csrn6oO/RvksFXJd+clPf960rUzqwqixdkRpu73vjbP+uk4p+F/q7al/VRCzaz2I9QAKoECXSSUFdRSWbq+pxOtbqfDFx1bd9sGEXn9K5cNxo341Kx227sKcLYTpvKS3s5mPnNNFFRXnPN37iz2063qseoH1+Y8KxviUVvFz+2X/p6zqk85cCGuuZsHHHU/5d2w7rCXbe2Lizd3k6743OiYtSgYH2TYGEWhmyqV/MiIKsx6LALIlaK/RSYJGOWnW07zoP2vnaPqtakeyzqLXFvj8FKJd/7l/992Lfv4K0YqRWiYrt5kQXp8LQAcoqtp/415+5jbvO/Yf9ye/9rO/KQBhMqLlPzXj6R2RNf2qGDZdZs6E1Z6qpT9tLamJVs2rYfBjvMhQ2zdq6mbrZaL+sPL2HV2j0ObQ/uz74lnMObmJNxJn+0dtVlDENdf5dn8n2w67OZKLPKjqo37Lpp+7wqVeuyujA+qUf9B54sukmltScmtQcbd97+B3bATITW667XoR04FUzvQU/ofBvafuUTZCVJP758ul2hzQ4hKJclNiFxfgxU1et7Rhnr/B8K7rKHz9fZLJx55N9Fe4v/fCVXgKbfr7Pv+sYvunnvXfDVOXf2L6pkmzHbdUDVDH+5PfOv4OSv/tUtB2Vaecv23+1tqhMbeONMyf7NAVVVrbVL9JZMu/ic85TX/rB3r7tqW6hVzq2nr67fGm/LVi45cFXvn99Vn3Hsnhe72e1Oo/O7WGXKvvewu+02NDNCQNizZ2S7gqBonBdCVl4z7YoRRG/mlZ7B5PZPzRjy8IDgObVFKtuMVree3DpbWJV86kq71YRt4qvre/nU+tpO2qu1D9U5bVm2zhdkVGZyqOrNypHlVLrqvXQz9v9/uizh59fBw31Qe1tnkx/JePe6HtSXl2FsC5JCsbiJ4m48CCa7vu+N/X5dFVDlfVMVGkPm1PD5ugwoAi/P1E+/evJppuSrgKJmqTjfUrVVK/PEAYa1kQu8SbeXMeU6GRkn09/d+tOpt9MsV7hKSkcQlEuSiQwtvNDeG4UHWd1rMzU2tDfuSVbR/oJRuwqur+Qkzpu6wKOLrLFgxvzaKyV5T+j+TBAsUq3DZq2oELdhDO1MOgcp2O9PruO/5amc4nK1/lL3Z/SeeX7fmVfcmWtSRJe2NLLLvipTiO66ClLUwFQmO+F1Tf4dNH5rNioPl3ZLRNcWRuw10b/UPzBLMM/6nTUxKmKr4KN935je5SaTBVBBQJq9rvis//Sd+DUgcHuaqHmS9E/fjvgqD+mDr6qnCqgUVcbXSVRpVj7Hf/Hqe186ft7fXl6hV21VKHWVQq7GmJ9KsWaelWmKsrpaH27x7UqzwoOFEgkXbWJCw9q/xm72m90xcOaXtPRQcsq1Jd/9l/992HN0fLZ1H6Zz6pCntpH66qkfL6ZOPU5VU66k4T4KzGpA7K+0/tSJxS1ONiJJX6FRWnWDK1m73gTb9g6lA1dkRL9ZvR3903uqf3W72DMyPxPDoikjp9clAGGjo5dEp53RMdkO19ZBbhQwUOu1Aqhc/rG1HFX+6tjvy6cabyGdeEJ9RecyENRIKByZOkVvcd2XdhLR+dKO8fd8uB/9N7JKXV+U7oumFlF/ulDx/x7ku8/cdC/xy94htSdWNvJlMfoXJT0ireu6HtLyqfXQFpJBstQ9PQp7pYJzoODRk2HYWRtrzg1OWaq9MZpPIWowmz/0DVAywKZ8OExdvXGDqqqvKrCqnT9g9QBWAeYeBCkymxYsdfB0cqw4MmulIQVaTVBiq6CZ6KDq67qG+2LfS5fOU8FLXaFYrDYfuvKTtgyYJ9V+6jvSwdeO4DbLfVE3/8Xo+boN2ZoJlbZCvx0YlHwoe/eTiy6KhSeXOwEGR9cGDbxxq/IZWIHXd29w5qy9ftQkKLmfgwc3UVRFkqkLmDnNx1Dk1pq7fwmFngMB13oek900U5jA15pregdQxcKx1uInQd0Hjb63L3njzr/GXW1X8f3TOMlNLjc2Pem85vGYOj8ZoFGpjIsiEl30Uznlc9f+3rf2pHuSBj2UtC5TBcz4y87x9nf7NHU95eUTy8bWF9sKrZlAoVhlex4JU//0BVt65Wpy8+RHK+eJF1t6a8PqLoV2YFIlVhdHdd4h3RjJpKuVFiF2yr5uiKifVGZdkXCuvFkOjjpIKZKtF3p13fjr5RE3a10wFJ3qjfOnOjn46yCLGrVyZd97kWvmX5ewGd/S7XYXDiuwU/Lf3zwrefk00FUrIk2HQUeOrHoqplaQT7w4E/930PfhVpm7PvT9yC6YhRuJ2zizeUz64FMor+ZvnOVpfEX4QkXA8DFGGBIrfvB4/7YKbq6bhVrHc97u632tijrCnY+PQUGSvui86tedo7R8d8qmkljAhVgWF5Vzu08Gr8op6d7iz6nWLeldPQ9WX3BWiFk4y5d3e9N7y8gURBirQaqO6h1PPy+dQt8UeCT7qKo1YXkc4teeR6F3tUNTN+VBTYWvKjlJWzpsHOiukkV67mrYsdMoDDC/o3hj1+VZN8dJvXaEF3FH64rJfrHrIqsBvv2VuBf9mMd1Dpgt6DLlgU/KvOhaPCZrszrIKh/5JkOKqIuV9qe8tmdLnTQ01V3HaisFSBdAPb0oRPR1PlXdIw+mw5OdoDKRN+FWhySXnbSMhoYl5Qv3cFY34c+a/j9KijTCVFXrKz8eJO9DrxJ29ErmwHqRicCXRXTeipTJxCNv9BJYSieJVIJ6OYEDB2dd6yLqS7G6Fim27KrUqrjvY65OqZ/8MHhaXnVecvO89onXbxRBdhaoG1wdUj5lVf5dNHHzqOfjLoCG+sNYOeTTEGA0eBuscq4Ku62DbsY2F/3WZ2n7XyscuLft/bVulenoztK6W+mO0r5Z0N98C3+XZ/FBzTRHat0zrKuxhr3qXz6XmwfN2x/JRCqNIyZKHPW/CjpKq9/EV0ViA+0Gkr6R6/uMzowWNOrHUzilXJdyVZ+o4O2DbT+ddBqYQcABVEaYCyZxkqIyhLrohWeHHSgskAjm6sc4RWd0Efe8hp/1cQCkyT2N1N5OmiHL1X29a4rW2HwoqsmSfnSHdS1b/4kkXqFg9BE29UVK7HmaGsRUsARbifcVq4H0sOnej+fgjaN99AYDinmu2KUEro5oSyU0M9Yx02dM/Q8JlXEdUzUS1fy1eqr81vYWq9jvc4ZSd1vdXEsvkxlKs3OEaY33/PnXNCxsi2AEBuboDRdvNHzJlS+H0cRnCusvPd+8xHfDUr57HP4c2KsZcW2Jf1dtDMKXnQRUevZuUPlK03db5Wuc3t4ITRO56rLP/cv55Rj+6mxjn78ZrCvSd+3/c16u/se89vU96ixmfHPqq5Yti3ddMa+P6VlM66yXFW1t7cX5T/T7u5u93f/8bT7qx/0Xl1G/lRp1aBa0T/yD276D/+PTRXym1MVXvuHqkHS9o9GFUxV5vQPJF4ZjS/TVX9dTRAN1DZ/65/oebFv+QgHb+sKhNj62jftoz9IRXeUUqVeD5HRPlo+BUPWhKqDkF3VUNOx9ZcMP4PoSofK0AFE+xxfHqfBWuoepAPUe1L7rOBD64fb0Lat0ptE3Yp2frB333uv4PTeWi/+fYff7XnfaSqPrnzIBx78j1Rl/Rd+WgGNroLo73fppzb5d333+hvo5HCDxpiktqlt6QqNytSVf1XYk9j3o/3USUPv8hep/bSrVfF9Cr8b0d9EfxttXydK6e83oiDRWp30/diAd/t8ouBCnw/5ef3kUe7vb3yNGzVqVJQClJ6uri73gX/e4x765fBd7EJ27LivblwaP4DiMHV0rXt46W8O6rmgqAdg00RfGLrvtDXNqZKufoSq2Om9r2L7949krGQPpk+m9k2VRl2NVuVWTYcWSKhya/0UjSqtCj6UVy+r5OsqRPwzhE2vWq+/z6jxGzZOQnc3sqZXbcMqtr4fbIbboOoqhz2Ix5q649+3f+ZHFEgkCZtTNW5B+xA2p+qKie2PNdGqxUYHc+WzJlp9f9ZCk+TGr/3Av2s/tY9+/dTLAgmta/tp+2TfjX3/1uKlE0i2FJBYk7puBRtvLtaVMAIJACh+OgfoPKdzjqS7eIXyVXPLLbd8LJouKj09Pe4/nzvsHn76aJSCgVCT472piqEq6HL6TI9vQlWz3p/e+2P3gyfPbZLUkzAPdpzyV5/jFfD4MpU5a1KLr9CGFWTdpUejQFUJ3fH0S72JKWpaVV5bX2V96/972pczsrbGV1YPdpx0X/7xr3or5VGTsCq8Wrb96Rfdym/v8pVnhZsKElT5/MzDe3y+0Omu7r5bkN7xncdcpidlyqkz3e4fH33GHTh6yk1pHnnO96Sr8b2ft87NntSc2v/0t717/PmjfZ9JrByNCVGrxr2xhwcmfd/6m/W2MtS5UanvRfRZtR/h+vp+FHDZtkaOqEltr9t/J/r+Dh475dOTaFtJvwttRyeEeLNtfJ+0HTX3rvj2Tvet1PdmsvmNbE/9JqysKU29V0xsu5/Zdv7fErnR1agb5k52tbW9f1ugFKku8N1fvOgeP5T+OIbho1ZnBRJ28xNdKHvov9KfGzH0mupq3LLLpg7quaC4uzn99Gn3V9+nmxPyF3av6a+LE1BO1M3pG3/4Wjdy5MgoBSg9dHMqburW+9poHKMuavV390YMPV1Y2rbkMtfQ8MrdHwutaLs5VVdXuyrubYg86QnRvuk1enrmcN2KDwAwQNxHoGipW69aoNXiTCBRnIZiyEBR381J/wH5WDzvYj8w2MYN0IcTlYi7OaEscF0RyJvOA4MdUBT1cyZomUC+NF5AdxLS7e4u/RTdm1CZuIkFygIxMTAgg31hqbhbJriqhjxpoLCaXbO51zVQrjiGoiwQEwMDUrEtE/rgXFUDgDyl4giOoQCyoWcs6TlCukW3btWt5z/Zbdfzodt86wnbVobu2qd5vewWshgaOg9UdssEbZsAkJ9UHEHLBMoCP+NBo7sw6QGielirnoN04dhG/wRoPctJt3z9q+g5QrnSrWJ1G3gLHFpS29G8XhhaQ3EeKOoxEwCA/NEygbLAz3jQ/NWbX+sr/npI6Ace/Km/hfrln/3Xvoem6qGi9rBVIB2CCQAoR2dpmQCQmR4wKpt+9qxb94PH/c1KHtv/svvk937mH7KqB4vqORIhtWaoW9RX/3i+78606DWt0ZLcqawl8y7y5ag8lUs3qMIaimEDxT1mgssRAJCf1OGTlgkAmRw+2enfZyRU4G/8+g/dJZ96yAcZRq0Yv/zwIt8taukVF7v3pSr/377pjam0d/jAIBfa5q5b3uqfB6VyVJ7K/VWqLD0rCoVBNycAQN5omUBZ4Gc8aPTAOfm9Syb7gEAPe/29S5K7Nanyf99Nb/BBg26/ru5Quv36Y+2H/bLPXvtbUc7sqAuVPQtK5YTdq776x70PnMXA6aLSYJ8LGIANAOWIwyfKBQ1sg+ZLP3jcV+DVnUkBgR72umX5AvfC6ht9hT7scqQuUZp/rP1ld8umn/ruULr9+o1f+4FfvvSKi3JqndCgbPl+qgyVY92rLLBAYVR0y4QiqeoqGk4AIC9UwABkQRX4yz/7L+6Gr/3QbdzxpA8sFBQoOFBgYQHFO17T5t9F4xvs9eG3vNoP4JYLxmY/3uEHv+p9DpS2o9vR2vgLjdvgQbOFVbFjJhRJ9ZztieYAAEBFopVt0B0+1eW7PL3nm9v9OIkbU4GFAgS1Vmg8g+hZEaJxExrfEL6sRcLyZCNsFdHtaG38hcZM5HtLWgyPom6ZYPAgAOSJChjKBVWBQaGKv7UuxLsnbUoFFg/9/Fk/feHYBv/+9KFj/l1BQO0HvpH4UnelXKhVRMGLujWpZUR3kBIbT4HSUNxjJoagnxcAlKVUBYwLMgAyWfTq6b5lQZX3kFok7AFzT798wr8/2n7Yv+up1mHwobwKSDR4O5cxE8qv9V43bYwfL6GWEY3FMHqAHgqjYrs5ecQSAABUNuoCg0K3hVUrg6iLke7mZC0VO295a1/LgO7cJPfufCoaT1Hnl+uZEHppXIUCkiWpl42dyIaCFa337Xe/0Zej503oqduiOzz9ZyrAQGH09AzusIHiDia4qAYAeaN1F0Amn/zuz/pux6oWhnAMhN2y1QZDK/hYqPlUuvLqmRB6Kej4/q8O+mW5eO83HvHdmqwsPW9CT9vWdm3MBgZuKFqoq9rb24vybNPd3e3+7j+edn/1g94+ewCA7L1+8ij39ze+xo0aNSpKAUpPV1eX+8A/73EP/ZKr1INpzMha/6RrVexFz45Q16N0NGBaQYSCjqS8Kq9lVJ07kgpANLhbrNtS/E5N/ZWFgZk6utZtW3KZa2joHfsyGIo7mPhpKpj4PsEEAOSKYALlwAcT30kFE7+iggnkY1pTndu6+HWDGkwU9d2cAABAhaM6AOStoh9aBwAYGC7KAEBlG4rzQFHfGpY7OABAnnQIZQA2AGCQ0TIBAOWoipYJAMDgnwuKOpjgRAgA+aNlAmWBnzGQN50HBvtcQMsEAJQpLsgAAAZbUQcTXFUDgPxxDEVZICYGBmSwLywV9XMmXnrpJbd//35/n2mxL0MnSE2H7xJOi+VPymvz4bQtS5cumebjyyQsy8TTqqurz3vUuZUVz5suXZLSxNYRbcumrZyk91B8fe1rUn5N6xUut3Rj69hyvVSm2HeQtG44b2XYunq35aGkcvRu+yfhcluW9PeIU16ta+8mvj/h8qR1NG0sLZ2ksiWc17S9h58jviwTK1fiecP14/nSlW3p9p7p+42XH5aneQnLyiZ/Ul6bD6dtWbp0yTQfXyZhWSaelvR9WFnxvOnSJUxTmS0tLa61tZXnTKCk8dA6YGCG4jkTRRtM6IR47Ngx19HR4QOL8ISbVEmy6bhweboTr+XRu14qO0yzfGJ5xNLCfGLz4bvEp0265fH14+LfifKF6/RXhq2fKZ/S9LLtZCvct1B8W+G7aNo+i82bME/IykgSfi8Sbi9cL9368bLDeU1LWJ4+s23T5iXMG7J0CcuN5zNJ36vlz7SelumldfUu4fZs3XD9+DrhNuLvlj8+HU8zYbq9i+WJlxN+7nA6Xfkmm+1YHr3rFf+8lk8sj1hamE9sPnyX+LRJtzy+flz8O1E+W0dGjhzpA4ra2lo/D5QiBRMf3fK4+94Th6IUALloa65333zn6/w5YbAUbTAhOlHqFZ5gJekkG558JSmPJKWlE5YVF5aTqUxbFi8raf14nv6EZZiwrPi7JJUdLkvKH6alWz9pXZNp3XTC/Enlh2VpXuLlW7pkWmbieSS+rVCmZcbyhO8mXDddWf1tI1zeX95MbL9yWd+2l2m7YR7pL38mmcrIdjtJaemEZcWF5WQq05bFy0paP56nP2EZJixLLwUZVi5QihRMHDhwwPdUOHPmzDm/b4n/GwiD7JCtZzSddOEgFF9m+SVpnaS0MH+67cSly5fN+lqufHG5pkumZUq3ixjpZFo/ieXVeuG6ete8iZebzXb6y2PL4p/Jtqu/fXjRJsyndys/zGPrSjb7KOF64fpJ62p5+JuU+Ha0P01NTa6trW1QW6mLOpgAAACVS5Wl48eP+54KxipLYcUpaVrvesUrXLYsaVqVL5tWut5tPhRWJo3Nx8vWu/LH98PEy7F1wnIknh5ny02Y37YdLzfT5zCWPxQvx6b1Hm5LbBthmsTnwzx6D9PC6aR3Sbcdiadr2uaT0uKUrs9l09mwbdq0hOXHy7H08LdiZaQrKxTPo2m96urqfEAxmK3UBBMAAKBoqWJkFTlRBckqVCasRInlSZc3npZJvKxc10+SzX5pXuJp+W7b1g3LiE9LUvnZbLe/PPHl2ZSZjUKVI9mWNdBtJq0fTwvnB7I9rasAZTARTAAAAADIC8+ZAAAAAJAXggkAAAAAeSGYAAAAAJAXggkAAAAAeSGYAAAAAJAXggkAAAAAeSGYAAAAAJAXggkAAAAAeSnqh9adOXPGdXd3R3NA+dGTKfWoewAAgFJU1MFEV1eXO336dDQHlB894r6hoSGay46C7M7OzmgOlaimpsbV19dHcwAADB+CCWAY5RtMnDp1KppDJRoxYoQbOXJkNAcAwPBhzAQAAACAvBBMAAAAAMgLwQQAAACAvBBMAAAAAMgLwQQAAACAvBBMlIh169a5DRs2RHOv2LFjh1+md6DQOjo63Pbt2/0rXypj3759/h0AAJQXbg1bIlavXu02btzo7rzzTnf99ddHqc5dffXV/v3ee+91ra2tfrpYLV++3O3du9dt27YtSkGx3hpWFf9bb73Vbd26NUpx/vd13XXXuZtvvjlKyc7999/vbr/99vN+u8gft4ZFJTp58mQ0BSCk84EegjtcaJkoEarANTU1ubvuuqvvCq9aJFLBoF9mgYSW7dmz57yrwJrX1eGQ5uNpcVqu8pKk21ZYri3XvN61vzaN4qXgVYGEgoe7777brV271qfr95fUQgYAg6mnp8d1d3fz4sUr4TXcCCZKRHNzsw8aVBlfv369f1elzq4WiyqAl19+ubv22mv9+2233dZXadc6CxYsOKc71JIlS/wriYIAtXpoHZWnabUqGJUdbmvNmjXRklfKXbx4sV+usnRl2ratMrU/KE7q0vTAAw/435WCiIULF/pptX5ZQCtHjx71f2O1POjvr7+16Lep34fm9a58cVrHfh/Ko3WM5lWefiPx351o/7Sugp1wO2EZ+t3bPilvGACtWLHCv4yCcuWx36d+r5rfsmWLnwcAAOkRTJSQpUuXutmzZ/vuTgocVGG64447/DJVzpSuPOpGpMBDFcJ8K+1W2VIFUi9RBUtUydJL29C2FDioshZWvlSxU6Cjq9p6X7Vqld93UXl0dyleVqmO/430d1RgoeBAFXz9/pRXwYUq+NOmTfP59DvRb0/5lVe/y5B1exILcLWOBb6a1+9J5dpvJqTflvLYvwEFONqeAgqzaNEiv5158+b5/VBgYcu1n/qt2va0rspTECFaT/NtbW1+HgAApEcwUWIUPKiCZl1QVBkTVYjUeqFKuypPK1eu7As8crV582ZfYVNgosqYXgoKVLYqYKpQ7tq1yy8/e/aVITdWGRPti13V1v7MmTPHp4lV8FCc7Ap/0t/I0sLWBv1dN23a5O65556+3451j1Ka/t4hBQlKU1CpgFT5tI4q8UbbsTKTAgqxbagc5bEWDJWj8t73vvf536x+h/p3on8jSrf90b7qN6s0BSQWDKscbT/ddgEAwCsIJkqMKkJWGVq2bJl/F6sQhVQhSupi0h+7YhtemVUwoMqbtqFt6UqyujepkhYO0jXxfUHpsL+d/Q5CSb8nC2jFKvRhq0YYTOi3Yy/9hvSyLnJhMKrfrgUu6YTLFdDYvlk54XYV1IpaUObPn++nta/Kq3UVfGteZahVIlwXAACkRzBRgqwSFVbYNR2v/KnCZq0BJszTX6Bhg6hFlS5d8dX66i6iipeuCD/++OP+Lj0oHwocRVfu4yxwtDxxmQKRkH7DCjjspdaDeLeqQrLfektLi/83oWDBuuupBeKaa67xeWxsheYBAED/CCbKhPVl12BSBQF6V4XfrhpbAKJ0XZ21/uZJVJYqhapYKYhQfo2hUPcUpVuFUWWqjHBwaya2DypPgQ6Kk3VN27hxY1/XI/2d9ZvR381aqJLMnTvXv4ddlsKxNCpXlXeVo+2oLFXsw1aJgbJAINwHdXES67qkbWof9G9EQYz2yz6zLQcAAP0jmCgT6nuugdCq8CuAsH7pNkBbFTdVpFRpUz7dj9gq93G6cqu+6qK74Si/AhUrS5UvzetOO+rq1N9VaGNXnlVeWMFEcdHfX2MRFDBooLT+xnqpoh3+ppJouV76++r3od9P/PdhdyXTIGkFqTZYOt3vMVe2Dwpy1Y1K+6CgQdu1bVhXJ+2HtbLo341+11o3XbAEAMXMLgDGj7uaV7qOhUCh8dC6EqSDgio9SZUvVY70UmUoqSuK+oPbMuWTTJU4y6/xE2EFy7ajdfXStCqhypOpXFtP2w/Lq1TF+tA60d9Jf3+dgERX/MPxEfoNqsKuirkq4CG1BGg9W6ZgQetby4DK1roqQ78ttVDY70V3IFN3JKUl0clSwUpYnspXmQoYjO2DKJCN76Na6cTWsXKTPk+x4aF1qDR6zsSJEyeiOaSj45ouJmocWHg8VPdkHRPVpTTdsbVY6LitfQ0vACGzxsbGYX1oHcEEMIyKOZhA8SKYQKUhmMieWoV10VG3brcLfEpTxVxpxU4Xh9QqrnGZxX5hp1gMdzBBNycAAIAyodYHtfpa66u9W/dltcLaHRn1UquFdYtSq4ACj/AZVRovpzQFJUlUvpbPmjXLlxt2pVJ5StOy+LasXLVSa5nK0XbtDn/Lly/vez4QihvBBAAAQJnQ1Xy9VElX1011GVLXJrv5hcaqWbdQjafUclXcjZZZhV80nS6QUEBgYzT1XB/lU/Bg62hbmrY79mlbFqhYHu2nlqmLqV7aJ9Ht77mzXmkgmAAAACgjqryLKvNi4yfswaKa14NnlU9j4TQ+Ll3AkMnG6MYcKkfl6eYdKk+tH+pWpa5KeimYsX2IDwLXugpEVI7GU+pd9B6O00PxIpgAAAAoI6rIaxC2qJJvA5mtIm8VdrHpXIMJyx+WpWBAwYGlqZuTWj3UnUldmURdsEIMsi59BBMAAABlxirpdtc7SbqLYtilKUm88h8XBiEqS8+60rsGUuuhtgow1PKwa9euKBfKDcEEAABABbAxCBqnIKr0axyDAg+1JuhW3bJ161YfJKhlId2zKbSOAhXLKxoPYd2cLE3jITQOQkFGLvoLclA8yi6Y6Dl71p3s7C6rV+eZnujTAQAA5EcBgx4ca3dQuuqqq3yl3x5GakGFggF1TdKYi0zdkNSl6Wyq3qW8etlgbL00mFrUzUkPD9XtXrN5vpQFNNzNqXSU3XMmunvOuhePdUZz5aFuRLUb21AbzaGc8JwJ5IPnTKDS8JyJ3ClI0MBqVezjAYE9kFQPm1WrQXy57gKl9bVM7zadFAxomfKrO1T8oZ9apu5O2o5aKLRNPQ8hHPSdVK6VqcCCQdj946F1GRBM9CKYKF8EE8gHwQQqDcEEkB4PrUNBqU9i+BqsPodWPgAAACoXLRMlINuWCTULqs9inO7vrP6Q2fRVzJYeSqMmyscffzxKGRg9+VLNmdrXSjJYLRMWRMb/5knp6fKieNEygUozmC0T6p6jLjUhdfuxPv+FpOc86AqyuvYAhULLBApO/RU1KEovVc7DJ04WKw3aUr9KFMaiRYvOeaKp2b17t39iaUjzOsEBQCXSBRUNDg5fGqSsi3O6SFdIesjbmjVrormB04U9XYwDhhPBRBnSFRUFEXopoNAVZwUUoqBCBx/dqUF3abAKvAZFaV7L9B6/FVy4PF7p11WdeLptJzwQ64BnZehOEnZFXPOibcbXkbB8KzeeT2WpfFsWlq99V5puX6c7Q2haecN1lG75RWXrgG/llVKgo7+tBruJWo/Evje7HaDYZ7PvUXn0Pehz6/MqILHlKlPBieb1d1Kazds2AKCUqbVg27Zt/qWnNes4Fx4zTXiuGG42iBkYTgQTFcIOfqoI6uCjSr3GPKhZTAciXYVRhVEPl9G7KpJWSdS8lqtSrkBFrQhKMyo7fkCz7Rhd/dZ6CgwU3KjCalfO7S4SSte0VYSNla/1FRAon+Z1qzn7XNpfHfS1/ypD5dsVeO2X8ofzKssqwppXsGVXdzSvZapQqzzts65UadulQPutQFItVPqbaf/vvvtud8899/jPY3n0Pd17771+XvQ3mzt3rn+40MaNG/tatvS9Kr+6oekEq9sAhvN0jwJQDuwcpJeeHq156/6kCy2zZs3y5wndUtXOF7oIo3ktU0uGpRudd2x5fJmOz/F0246x85HS9NK00vSyfDp/aVppIctjF9E0rX20i4uic3lS+aL9UprOffYZdG7VOirHygu3G34f4feE8kYwUYZUwbYB0jqQaT5+azVVAjdt2uQrizrQiCqWqkg++OCD/iBqBwF7V35VMLU8FzrwqHKqbWkbqtRq+6J9U5miA7i1pCRRkGHrqyxVknUQ07vWU7r2X9N6kE4YzIjW0TJVrMUq0/Z5Lb8OhipXn1fl6V0Vc6WXAh34VdnX59H3ru9Yn08vu2WfvjML2sLvW9+bfa92a0D1G162bJnPp9+Tyl26dKn//vTbiPc1BoBSp2Ofjp3xi1uqiCvQ0HFRxz894Vm3PNV5RcfPsMuu3nUMtq7HOheGF+Kyocq91tG5SC9N65yt47HKFCs/vq9G+6z91fo6visg0GfTtC4s6rNq/1WGju9aHtLn1LhLbUcXl3RxTecAnVO1rtUR9Hn1fSifytP3ou8jqXUH5YVgogypcqfgQS87kFnl3SjN6OBkV/RFByRNW+VaBwtLE02H6/fHDp7hOjoYqyIfVmT7owO1sX2xSrHm9bl1YNSVEl1ljwv3X6w8zeulssTWtas5djC376OYWeuRAiB9v/qM+vspTZ9HB3bRiUXfl04a8e9K34Wtp5e+F42pUD79DZVmwYry6aQEAKXOjm26cKRziajSHNJxVedTHQtVSdexVZV0dZFSZVznNLvyr0q0jqeqiNvFrFzouKt90vraD71UhratclWmaB80ne58qmU651oAoGO6nTvVpUvnC+3/FVdc4cuwc7bR57MyRHUL2xfRPorOKSpTF/ZUntbTOYILTuWPYKIM6UCjA55ddde7VaST6B9/XJiWVFkspgqkDmTq5qQDlj67HcDyZQdkXVWxlw7muZ4IhoO6HoX7qWn97fUb0OfQvE6ECh6VphOEriBdc801/uRg3aAsv5181DKhaaXp+43PA0Cp0wUSXXXX1XW17FsQEArPpTr3hPM6b+pllWudJ3U+sTxaZsfYbNiFnnAbqqTHLw72J76PIQVO1s1JQcJAzu363ApSVJa99Bns+0D5IpgoQzpwqFKtVzYHLuXXlQj7B693HVS1vuhdB4iwpSLpKr2l6WAULrfb64X9NNVdRi0I4YEr34OY7lCkde3qjbY3kAOifWf6XnQi0evIkSPnHYSLkfY5PHGE8/o7hvN612fVSyc8ezfx309/8wBQynSs1+3O9dq1a5cfK5iJjpfxc41d8TdJyzMJl9vxOCxD51+1QA/kHGfU8mHdknThUZ/Zzg/50vo2iN1eujiF8kYwAX9lWQctXZ1Q066u8mvernCrgm7L9dJyHXyMDh6aVwChAVdXXXVVtKSXlutKipYrgNDA6Y0bN/orLHaw1PoKaLQs16sYFqwoQLGuSf0dsDPR59U+2/ehdx1w402/AIDKpYspOi/YGAld5Vcl31rGdaVf5yIbU6DlYbdSCzo0zk3lKEgIb/Shll/R+jovqmydj9R6YudO0bJ8HiJrAYnOofos2tdcz78hndO1vnoJWFCiczJjJsofD60bBCPr61zz6AbX3Njg6ur0sLkqd+ZMtztx6rTrOHbcHT95yp3p7u7NnIVsH1qnA4H+0eqOPDqIJdE/ch20bECt0QFA66oMHeCsQm3C5TrA6V3lWHNrfLnowBhuRy0TShMdvMLm43B9lRluW2nxz6XARGVpW8qrfVEeUZoOrDpQ6nNomT63uvLoIG/laR8sKNJBXne2Un7R/th3JSozDKAKpdAPrdP3cvDgwWgOpUa/hXT/dkM8tA6VZjAfWqfjvS506ZyUrjurKsU6h4UPatV6qtzr3ahSrivxOu/Fl+tcpXSdm3TFXrTcWvK1XC/N23Y0zs2CEaN9tPNnuL5aFuLndX0ujXWwc7XKUpnavvLaBbzwnCtabnn1eXT+0zlXrTVheerKpGXKo3Or9kcBk31OvWsZrdiDa7gfWkcwUUCjRta71skTXOOozCd53VrzaMdx99xLL6c+X//7mm0wgdJTyGBCv6t/+qd/ch/84AejFJSaL3zhC+6tb31rvycFgglUmsF+ArYqwFaZT6ILS6ocJ11U0oUnLdO6mZbryr21IISV6/jy+HZU2beAIWzRN+H64bKkz6Wy9LLyNW2fLb5/llfTKjepPO2XloWfR2laT5L2F4VHMJFBqQQT+gNOmzTeTRjbEqVk73DHMbf/+ZdSn/VMlHI+gonyVchgQunq98qA6NL1uc99zgcTChYyIZhApRnMYAIodcMdTDBmYoDqake4Sy6YllcgIWOaRrtZF03Pe30g1J1D9zkUH/391MIEAECpIJgYgLraWnfx9GmuoZ9uTf2pqa723aMubJ3sRoyoiVKB3KgSOpxXJgAAQOUhmMiTuhlcPH2qq/cDrAtDrRSXXNDqRuZZ5vjx492UKVMG/OqviwWKE4FE6eNvCAAoNRUzZkJ3VmoYVe+6zvS4juPHXWeGMQr90QlflX6VNxj0uZ957nl37ERvv/hsxkzU1ta6iy66KJobmAMHDviBVnFnTx907lSR3CmocaarGtEYzZzv7Jnjzh1/IpobZiMnu6r6ydHMuQo5ZkK/G91t5MMf/nCUglLz13/91+5tb3ub//ecCWMmUGkYMwGkxwDsDAoVTEydMM5NmjA2mktVxrq73ZPPPudOnsqtbNM2eaIbP3ZwH2DWnTpwPt3+vA98iiGYONvV4bp3/WE0VwTG/rYbMfuj0cy51N2n+z9XOHfiyShleCmQqP7N3lvPxhU6mND9zj/ykY9EKSg1BBNAskIGE/r3pVb4/v6dZUPjnJ599lm/f8BwIZjIoBDBhJ75oAHOccdOnHRPPLM/msueBkprfMNQUKX4qX0HUt/BqWENJrQfXcf2ueqf/1mUMvx6Rr/aVc9Zm9glS78b99i7XVXXC1HK8DpbN8lVve5rifta6Ls53XfffQQTJYxgAkhWyGBCx9y2trZobuAUTJw8eTKae8XZl36cqpQcj+aKSMtr07aWm7NH/tM59UYoJiNGu6pxvx3NIEQwkUEhggmNQ9DA5rju7h73818+Fc1lRw+gm50KTIbyD6aK/LP7D7i6qsx36RnsYOL4oafcyF8sj1KG35lRc1xVKpiorz+/q5lOODX/9Weu5sxLUcrw6qmd6Lp/48tu1KhRUcoraJlAiGACSFZKwYTOmT1HHnNn99wWpRSZ1j9xNdMXp63LaP+7H3lrNFdcquf/sz9v4lzcGnaQpbtVZleqQpYL/ZEuaps65H8sbW/yhHHR3MD8+te/9s8hyE9xxZzp9kYHQb2KSzHuEwBgsOiiT7E603UmY7esXC/iDqXOzqF9jhiyU/bBxLGTp1L/MLqiuVccOnz+AONMJo0fk/ddlgaqEOHLv/3bv/nH77///e+PUnLTX1V4zMwb/Eum/e5nXO3o5Ks+jVOudBNf9xfRXK+aumY3+YrCXU3PVHHX9i/6P/9fN/2q/+0mXPa+KHWwVQ1JEDqcVyUAAK8o5mf+nOk+k/E8WcyBkIIJLs4Vn4oYgK1nN2icQ1Njg+vp7nEHX3rZvZRDMNE4aqS75MLkR+wPhc7Ud3Dopcz9//vr5qRWCbnqqqvcU09l7t6V1M3p2KEn3ahfrIhSzmeBxOEn7vPBxJHU+7i5N7nu00dc5/F97siv7k9V4P+XO3Vojx9/0d111I0cO8d1d3a4Ewcf8cHEsw//DzfpdX+ZSjviTr28xx3a/XVfZpKuUXP8mImkbk7Hjh1ztbv/h6vpPr+bk4KJhsnz3QuPfdFd+Oa/d/t/9D9T+/vXfpm2P/2qL6f279nUXJWrSwVEh5/4dmp/jkafr8od2vN1Vz9ujjud+hwNU+b79WobW/1nfPHRL/n5uJ4RE1z3q78y6N2clP7jH//Y/fSnPx30wYD6TRQieImXY/Phuwx2oBTfbjZyyZsN/RYuvfRS96Y3vYluTkDMUHVzOnz4sLvpppvcmDFj3Ne/nv4cFIp3c9K+nnp+p6t7KvkmIaHqut6bufSkzjO6CKfzY5Iw30CdHn+Dq7/4psRxfDquHT9+3I382Y1Ryvm0L7oIKOn2d7CcfPW33OjRowf9nFBqGDORQaGCiYHQA+UundFW0OdJ5KoQwYQooMg3mDieCiZG5hhMjJ2zzO17+M/dxf/n/+s6ntnsjh94xI2ob3b1Y+emAojtbvT0a1zzBde4X3/3T3yF/sXHvuQmvO597sSB7b7CrnXTUTBRM/fTrq6uLkrpZQfCTMHE5Ct6b52q/alK/Vdd1+TntY8KgBRgKM/Le9a7ltTnUlDx6+/+sW9R0TrKc+ZYu3s5FWiohePIr+7zgcXTqc+RpKd2gjsz98uJQUMhgwldCdOJ8MiRI37aKsdJkpaFaZnWNVqufNmWpXdJKjepDBNfL928xMuwcuPlp0tPJ12+bNeXTHm1TL+F5uZmN3bsWFdTk/nhlQQTqDRDFUysX7/enyu///3vu4cffjhKzSxpzMTJ1Dmu7qmPRSnp6byiCrnOnTPe/A1/rrHKulXUNd+cOl8q2NCFMAs6Ro6b23vO+vcP5RRs9BdM6ILcqJ+nv3ujzvejU+dubcsu/Gn7tu1w/8N0229LC/c5zJfJid/4R3+cxLkIJjIohmBi6sRxbtL4V24rOxyKIZg49tKTbtQv0wcTVknXlXtVwFUhVxCx/0cfcuPm3OQOpyrcOvDpt959+qif1lX/KVd8xD35T2/vayWwMmob2/x7OhqAXZ0mmNAJZ8R//feMLRMKZrSfCg5qUgGODnxHn/me3x/thw7wCoiURwe4Uy/vdk3T3+QO7PyEGz/n3T540H6ry9TBnZ9MlXllKhj6YrSVcw1VMCFappdVWq0CG1Zk7YBj86GkZWFauvLCaRNfnrROmGbi+SSeJ2R5QunWT9qeiZejfJnWj09LuI6J5xHLF1+mIEIn+HgZcQQTqDRDFUyIugV//OMfzzuY8C0TL+x0dU/23zIRDybaU+fM3lb83b7l/rQ/9/QGErrgpVb9mtpmf8Gt49nNqfPRTanz0if7yumvVV9Ojb/ejZr5nsSLFjomdXR0uIb/emeUcj4FE6r86zyqc7bOlTqvah91PtQFxa5j7b57tI5kOtfr3Kuy9d4XfKQ+iw6BTanARBfo1MLf374rmGhqaur3GFlpGIBdxBobRrqJ48ZEc8hElXJ1E9LRw7+n6MBn8zrYnEjlOfyrb/sDiyrltkzdiA7u+JTv3qTgQwdK5emPVcTi0qWLDtAqW/urFgXtV1fHPnf8uUd81yXth4KHFx77gs+rdx2oFQC9tPtr/gD50p6v9X3Gfal37e+hVFoxsErmV7/6Vf/6yle+4g4dOuTT1M1KL02H8/ZS8K5XfFmYP/4eTv/Lv/xL3/pJy/tLiy+z6aQ84cvyhK/4snDepuMvyxuuE07bfLppm7fpMC2ebvPxZboowEkSqGzqDqyLWiNTAYMuVD3/2BfPuVil1nS1mKsVX3nVwi46P1XX9ra0D0Q2xyAFAG2poEfnR11o07YVzOhCYGfqXRcDT6fOoR3PfM+NHDvX1Y+dkwo0PuX3VwGPLsiNmXmjD5b0WVQPUL5scIwsPgQTaahSNn3KxLL60c6YMaPfVol0svkadDDR1ZWezg5fIe949nv+yonmRdO9YyZ00Gnvm5fjBx/pS7cyBiTN/uqApW2ItinaD11hEbVAWJ4wb5jH9tOmw8+YbOh/Q3fddZebP3++//3edlvv7Ql1tWn79t7PIJrfs2ePa2/v/SwrVqzwTfxKN7ZOmBauI/v27fPzevq2tWjF8wBARUl/TescOq9MvOwvnMYNVkVdbhVEKE2Vc134UqtDS6riLWqlOJ2qjBvl1YU4nXN1pb/r+MCPu9nUe3Qx7rlUwDMmtV/ax+r6pt5z5vF9iedDpY2fe5OrHd2aOu/v9vOdx571dQBbT/MoTXRzSqN10ng3oUhaJQrVzSlb+YyZGGrpBmD7fc0wZmI46DkTZ+b+7yHp5mRmzZrlHn/8cV+pv/32293dd9/tg4UrrrjCbd261W3atMktWrTILVy40AcLa9eu9UGHmv41rWZkBQPLly/3QcmOHTvcvffe6770pS/5wELzd9xxh/++16xZ4+bNm+e2bNniy9WzLrSufkNad+nSpdFeoVDo5oRKM5TdnNQlWF2dli1bFqVkljxmYkdWA7DFtzQ0TvcXs9RVSMGDuvtoXnTFvvN4b0VbXXJralv6KuA25k+sjP6om9PIi9/tjyNx2vf+xkzYNhUQqCVC+2H7qDQtt3ej+XgeSxcty2bfGTORjG5OBVaXqlRfMG1S4j+SbOmuT+PH0r0pVIwRZ8Z/OMP3byrB+f3oh8LixYt9AHH99df7Cr5uDawAQBV/BRmtra2+wq/K/pw5c/xrwYIFPpCQ3bt3+xPuqlWr3J133unz6jklCjYUoKhMBSJaX2kqTzZs2OCn9VLQAQClRK342QYSaeVwyFeF2irSamFQV9ywYq1p5dFLreGaVwVeLD0sY6D6O1/Z9sT2w/ZRwvcwbzyPTUu2+659U8CD4lKW3ZzGNje5Sy+c5kbWnzs4Nxsjamrc9Knq3hQlwDtbNSr1yu0K+mDqGTE+4wGlmPb1bHXjsBz81JKwbds2t2TJkr6WBrH3lStX+kBAlX8FBnEtLS3ndFvStMpRy4ReFnRYnrAr1DXXXONfCmQAoJIM5HivFgeNhUB6w3kFHsnKrptTTc0IN3HyFD+tf9DtB1/M6ZkSl1zQ6gdeF5Ni6OakZs+D+590p46/5Od1rPT/nKN/034+umIQ/jtXulG6zdvBwA66vfNRuX0FaFlvut57y65yNdVVrnncVDdp6sWJd3NSc/Nz+55wJzpeiNZRuspVjnAfdVvTVGDS07sP5pX8514B6V2nd1mS8z9TKlpP/W/0mClu8rSLE7ulDFY3p6uvvtoHEkZ/T3VjUoVflXwFGKtXr3Z79+71QYFaLBQwKLDQ9OzZs/16lkcUnGi5ujPZOqKuUNbsrBYKK0fbfN/73udbO1BYdHNCpRnKbk65SurmdOr5Ha42i7s5DQfdGnbkzHfnfTen4cTdnJJxa9gMBhpMmIMvvuwOvHgomktPD7abMLYlmise2QQTqpRecskl0dzA7N+/3wcPIT11Us8vUCVWB/XwR9tbOT9/3irVYsuT0uIsT3wdm9dn1UNrdEBJOhhqX1WR1cE93J5oPl25oaRl4boSnw+Fy/SPXFf5k7reDVYwgfJGMIFKU2rBRC5jJoZaf7eG7e+hdcOJMRPJCCYyKFQwIS++fMTtf773qnqSqRPHu0nji3OcRDbBhGgwsiqnA6EDdrrvXA9C0/J4MNGfTJVu0bJ0fxcTz6PKVKbPqn3VK66/fZFMedLta9I6llcH7KSDthBMIB8EE6g0pRZMHH35Odf15D2uJ+E8lEinlfhpJykt1N/yBFWu2tVM/F3XcuGbMwYTJ371t86dPqiU3gWS6/7kun/95K8ZUetqL/0gwUQCgokMChlMyLETJ93T+5/3lTFTlzopt02d6AddF6tsgwmUnkIHE+qCFP6+UVrUbU9d1PpDMIFKU2rBhFr3X3jhhb50paWTdJEq2zTNK92WJeUJKYCYMGGCGz9+fOIFOa2r84v2PezunKtM+9HfPqajCvPkyZNzPmdWAoKJDAodTEhX1xl3LPWPuzP1rjs/tYxuTP2DGr4/QDYIJspXIYMJHZwfeugh96EPfShKQan5whe+4N7ylrcknuRDBBOoNIUMJvTva/r06f3+O8uGWsDVNTh+EceO03rPVHG2CmCmirdRnqT8SXmS3kXTelCmLlyE64X0mbTvqoPZ+mJlmHh6fDu2bqYyklheCfNrn3XcS9fSX8kIJjIYjGCiFBFMlK9CBhNK14PjbGA0Ss9nP/tZ9wd/8Ac+WMiEYAKVppDBxHAJK9ehpEpgmCdcJ2k6/h5SWsjyZSupvLCMpO3G5yVpm/F1bTpdeUlloNdwBxMDD8sBFI3wAIzSowoTf0OgPFllT+/hK0l8eabp+Hv4iktKyySpvLCMMC2eJ54WF89r0/aelI7iRDABlBEqogAAYCgRTJQRPY04/gofJJYLPSugPXq4WWjfvn2+3Pgy5Vd6Eu1D0jrp0pEfAgkAADDUCCbKyF133eVfeiDZmjVr/HQ6eoCZPYwsidaPBwd6SvK1117rH0i2ePHivkBFaSrv9ttv9+8hBQqLFi3y5WkdrWvpV111ld9HLbd05I9mYAAAMNQIJsqInlCsl9xzzz1+Wg92W7duna/kKxgQvesWonq6sQICVexV2VeeHTt2+DxJtGzp0qW+bAUsWm/z5s3+9nGbNm1yDz74oGttbT2nNUTbnjdvnl+upyNbgKNtL1y40O/jqlWrCCYAAABKEMFEmVOlfevWre7666/3FXZV7ufMmeMf+qLKvAUbCgLmz5/vVqxYEa15Lgs69FKLxbJly9zs2bN964be1epwxRVX+Lwq0yi/ticKKhR4WDnXXHONT9d2NR8GIcgd3ZwAIHs6l8Vf+VJX36RzmMrUxTud44zy6aJeuu3Z8nAdSZcODDeCiTKn1gS1Iqgir1YFzVvl3t6vu+46f3DSQSrdQ2osCND6uv2oUboCCrVWbNu2zbc8xA90YXBhCBwKj25OAJAdnad0vtJL50ibTkcXzDJV4nUhTgFFaP369b77r86t1jVYZahrr86j6boGqwuwzrVh12AFJErXu9bXcqBYEEyUObVAWMU9KVBQmg6kaqVQd6N01HKhoEP51F3JKF0vBQzalt61PdumWi3soKerMMqj/ErfvXt3X7qVAQDAYNM5R91s7Xxm3YR17lJrvSryCgJE8zqPqTuw6JylIEABRKaxh+oVEHYNFq2rC3nalnUNDqlc9STQfinYsGBC+6BnCKkslal5oFjw0LoSkOtD62bNmuVbCXSQ0lUMHQDVMqGDoQ5GCxYs8Fc2VLFXAKEDopaLrpY8/vjj/kCq4EEHNdEVF6W1tbX1VfpV1rRp0/wAbB0cdUVF73feeae7+uqr/cFQ+6D1lK6DqLpHrVy5sq88dXFSusrS9ipNIR9ap38vdgUMpelb3/qWe+tb3+qf9JoJD61DpRmsh9bpvKXzlc57osq8LrLpXKVpna90/tJ5Tuc0naeWL1/ul+s8ptaMnTt39p3z7FyqcpVP6+oinF6iMrXMWvVV/s033+yXSViO7duuXbvc5Zdf7gMQpeucqfW0XUB4AnYGBBO9cg0mFDTYAU10QNJBTxV3CwSUppcOdDqo2XK9a129h4GDHfhCWteWa5uaVprN23LbvoKXpP1SwGHrVZpCBxM/+9nP/HeqE6/o4GJjKeLTEo6zSJdX+ls3k3hZSQqRJ75flj/dermmpxPfrkmXno7yq8Xusssu4wnYQMxQBROqtOvqv85Vuvqv5archxfpdNFG5zgt07vWjQcTSlfgYOc9a/lXms6lapVQHl38UbBg51KVYxf9dCxXEKPyw/0imEAcwUQGBBO9cg0mUDoKGUwoXUGfmuktmBhsqihb5Tt+IAvTbNryxiWtnysrN105uWwjaT/D9e1dafFybd2kMiSernn9vWpqatzo0aPd2LFj/e8iE4IJVJqhCibCyrwFAwoELJjQMVZdltRKoH/HVtmPBxNiLRNhy4MCFAUTd999d9+2FUwcOXLEX8AL11HQopYPbVdBh8pWusZiqAuV9gEQgokMCCZ6EUyUr0IGE6JlFkhYhdUOMFbBtWmJL7P0uKT14tPpyrJ0iS+TdOuJzYfp8Wlj+eLTJr5++C7xdcI8/QnLMGH5lh7PF+YRBRR69YdgApVmqIIJjVHQSxV3dRPWbc3VGqE8elfAoG7CaslXYJGuZUKtB+pCHLbwa7mmFYCoLLU8qLuUghPdDVHb0vEg7AL86U9/2gc21oqh7lJKt1YKQAgmMsgnmBAFFOWmu/tMNIVyUuhgApWBYAKVZrCCCVFAocq90bxe1lU3TFMFPlyugELral6tGJZfLcRaFgq3oeBAea2LrwILmw7Lt/IkXTpAMJFBvsEEUCoGK5jYt2+fvyImdmctTj7lg2AClWYwgwmg1A13MMGtYYEypGZxu6Wg+tfqBQAAUGgEE0CZ0m1+1SRuNK3Bfep3q2Xqd2vzun2wptWX15rSbZma4wEAAJIQTABlSncg0d1IQnrYke6Tbg9jUhco3RFE87qDiW5NqiBD62mgn/LHywAAADAEE0CZ0kBBBQdqhRB1ddL0/v37/bzYgEANHAwHB9otZvVSkAEAAJCEYAIoY+H9zUXBge5n3h89+Vzdm9RKsXnz5igVAADgXNzNCRhGg3U3JwUCdg9yGzehlgel691uZ6jgwtKVX7cntPuia1rsdoUoHtzNCZWGuzkB6XFr2AzSBROqCOnpj0Ap0ViFOJ4zgXwQTKDSDGYwceh4VzRVnqpTdcwxDbXRHMoRwUQGtEyg3BU6mNBg6pkzZ0ZzKDWPPfaY+/M///N+TwoEE6g0gxlMHDxa3vWMmlQ0MWF0XTSHckQwkQHBBMpdIYMJnWwffPBB7r5Uwj7/+c+7P/iDP/C/i0wIJlBpCCbyRzBR/nhoHYCC0MlWgQZKV3d3t/87AgBQKggmgDJx9uxZ/0Jp428IACglBBNAmRjOJk4UhgIJ/o4AgFJCMAGUCa5olwf+jgCAUkIwAZQJrmgDAIChRjABlAmuaJcHgkIAQCkhmACAIkJQCAAoJQQTQJnQFW2uagMAgKFEMAGUEa5qAwCAocQTsIFhVMgnYCv9H/7hH9ykSZMIKkqQWpWefvppt3TpUldbWxulJuMJ2Kg0PAE7fzwBu/wN9xOwCSaAYVToYOKFF15wL774op9Od2BRoGFdomw6l+Aj1/zG9ifXdbPZXjxPum1lKiuf7Ril2TbDbVt+vfS3DtPCfFJTU+PGjx/vJk6cSDABxFRKMDEidRxobBjp6upqU0FAb+eRrtTx/PTpLnfi1Om8npBPMFH+CCYyyDeY6DyT+z+2Ylad+oGMqBm+HwkGTyGDCZ1klK4TrlVg4weXsDIr4fJ4/kzrm7AcW6aXnfCS8orlD6fTvVseic9LUp5weVy6/JaeJFyelDdeVjrx5VaWXvotKEDQ70HTmRBMoNKUezDRMGqkmzi2xTWPTv/vvzN17D92/IQ7dPioO34y+30mmCh/BBMZ5BNMdPecdS8e64zmykPdiGo3tiHzlUqUpkIGE2IV02yEFeBcWSXYxOdD4bJM62Uqw2STJ53+1s20fCDbjetvO3r1h2AClaZcgwmdA1onjXdjW5qy+rdvjp046Z574SV3IouggmCi/BFMZEAw0SvbYCL1t3SLFy+O5no1Nze7JUuWuOuvvz5KKYzly5e7vXv3um3btkUpA7N9+3bX0tLiZs+eHaVUhkIHE6LfwYYNG9yePXvcddddl9Pffs2aNW7VqlXR3MBs2bLFvy9cuNC/o3AIJlBpyjGYGFlf5y6ePs3VjqiJUnL30uGj7sCLh1Lnhe4o5XwEE+VvuIMJ7uZUZlSRVAChSqQqcUePHnW33367r1wWUkdHh99WoSjgWb16dTSHgVBAqd+AggL93e+//36froDNKvj62ynYsHktU3Bo86Lfzo4dO85ZT/P2d1damEfrh2VqWi9t39bR70bzyi+WR2UAQKVoamxwl1zQOqBAQsaPaXazZkx3zaMboxRg6NXccsstH4umi46uRHR3p4+2k6j3wInO3NYpdrqqMKq2/wOOKmqqPL7hDW9wd9xxh39XUPHNb37TV/R0lxhV9L7zne+4trY2d9ddd/mWn4svvtiv+41vfMPn3bdvnx8EqgqpUWVQZW/dutXnVzlKu/nmm32F8stf/rKPiltbW31+287cuXNdfX29T1MFcuPGje6HP/xh33Zl3bp1fZVJlRWuI2H52jeV8eijj/rPEO5juvJVWdXnUn5VZP/5n//Zl6991bw+l7YxZ84cn1/C70Prx7dVKPpM/Q22jdO/C7VOJNHfRH+jz3/+8/5v+Pa3v93NnDnTf2Z9x1Zx1/fzla98xefRd6m7QGngtqb/+3//774szV977bX+s+v71/djgYmm3/ve97q3ve1tPo++y49+9KM+7wMPPOC/P23Dfi9aphaSW2+91XV2dvq/kcrX/mg/lCf8/pGZWrTUOgFUCnUNVG+FwXD89NDWGUY3jHIXTZ+aOrcX5nqujgdjm0f788nxk+e3WmvcZUPdwIIWFLe6ujpaJjB4VAHWS5U7USVfQYSuXqtiqMqcKqCLFi3y6Zq/8847/XK7mqx3zWu51lflUZVvo7K1zK42i23H8ilgUOuDtqllK1as8Gmiyqcor6bDssXKV36tpzI0H3bpUquGytc+WPnWGqPPpPxK25gKNpSuddVVS916lF+tN7Y/ouX6HrSu9kmfWQFZKYh/f6LuY0rX39KWKwBQgKkKv4JCtWTEAyblWblypQ9KFcglUR6tr2BArWHKa9tYsGCB38a8efPc5s2b3c6dO/13un///r4AUnm0DgCUu4ZR9e7C1sm+gl9ok8ePdRdOmzyslUpUJoKJMqfKtSqQ8bEIukq8a9cuXwlUJVp57r33Xrdp0yb34IMP+vnbbrvN57Xlau3QGAlbni3lVWVelU1tU2Wocqk0BQo27kLLNa3KaRKV8/DDD/sytL7mrYKvSrD2T/tvZVgwYfQdaJk+p6hCq7K0TlNTk69UiwVZ99xzT9/3oatipdANy747fXZV/tUSoGBJQdOyZcsSK+1aR3n0fWbzd9V3rsAgGypPf2MFDmq10Pe8du1ad/fdd/sgAwCKUU1NtWudPMHNmXmhm3XR9FRFfcyAK+l1tSPcRW3T/O1fB0tLU6N71YWttFxiSBFMlCFdSZ81a5Z/6Wq9VeBCYaVSFT1V5K2bid5V8baKuirWqqyrLFHlM12FP8nu3bv9u60vqtA//vjjft+ypQDC8mta7Aq4KsrTpk3zgY+CoKRKsa1j+64r4qJ5fT4ry1pKtN8qTxVz5SmVlgl9t/qbqbXlyiuv9H9rVdy/9KUv9f2t9Xnt762A0lpg7Dsx9p0pENDL8j733HN9y+xdvxmVq5fl199LLUD6+yifggj9fRSY6Tu1fABQTGamKv0Txrb4AEADpadMHO/apkyMluZOLREXtU1NBRKDX+0aObLezbxAA7sJKDA0CCbKkCqJ6pqil4IIXc3PVPm3SnQorFzrynK80q/l2dL6g0mBg7ppqZJqgU+mz5sNlWFX6vXSdxqvaBcrfXb93RVUWACn7kdqaVG6AgvNW8uA8iuvfi/KY6wcUUCiYMDyqlwtC/OoZUi/E+vqpJfSwv3Q96h5bUfrWj4AKBajG0e5UaNeGbdnNC6hPhVc5GPqpAk+KBkqI+tqfUChFhZgsPErK0O6QqwryHqpotbf1X9V8FRhtkq/plUptyvXKk9pdmVe+TQfF165D5fblWfrIy+64h+OyxgItSCoHH1eVVIHemtTfV4FUipPFWW9SqnSq+5NvEr3BWB4NYw8P5AQdXOqH5l7QKAgZMLYwt/Aoz/1qYDi0gvahqQ1BJWNXxh8pVmVZ13dVyVfA5UVMNiVa3VREXVX0XK9h60ZusKslw18jgcJuqKtl7rRqPVA/fc1XkJ5tJ7oXcGIlufakqHnU4iCFY13SNfNKVv6vArA9DnWr1/v91dX1q37UzF79tln3TPPPOPv7sGr9F66y1WhHo4HID9Jd0Qyp0/ndkcpVeinTRofzQ29+vpad8G0ydEcMDh4aF0JyOWhdapIh11Y4lSJ16BsXcEPWyxUUVZF3Cr4qlCH3Xq0XBVrVfS1TMGEylGXFbFt612Du1WGyrPtKL8q5WrxUBm2jxZMKF3Ltb7KtHRJ+ly2v+pGo5YEfS4NCrb9U6Va02pVUJCjcQ8KmhTUWHnaT2ttUICkrk3WZSf8PKK82nZ/rTy5UgWyUA+tUyX0qaee8t/HjBkzolSUEv0be/3rX9/vA+l4aB0qzVA/tE7PgGhsOPff2KHDR92zB16I5vqnloyL2qb4Z0oMp+7uM+6FgweiOZQjnoCdAcFEr2yDCZSeQgcTv/jFL9xrXvMagokSpWDida97nT8xZEIwgUoz1MGEngExZdI415wKBHpS9YrDR4+5gy+9HC3NjgZw645Qw41govzxBOwypEFWk8aPcRdMm+QHQF1yYau/i4OaOltGNw7qbeFQuRRM0EWm9PE3BIZfdyp4aT/wotvzxDPu8aeezTmQqKutdVMmjovmgPJGMFFAo+p7H0bzqhltburE8W5sc5N/0mXjqJGueXSDmzhujJvRNsVdmlquqxX1Q3hnB1QGKqIAMPwumDqxYE+4Boodv/QCUNPS5Anj3KsuanNjmnofaZ+J7lut5s9ZCiqmTHC1ed5qDggNZxMnAKDX+NT5vbFhVDQHlD+CiQFSlyW1RkyZMDZKyZ4qfxPGpIKKi6a7llQQAgAASpfv3jR+TDQHVAYGYA+AHgajMRHq3lQILx0+6p57/kX/GULZDsAeP358zoN5k+jpxhrki8FX6AHYeqr4a1/7WgZglygNwNbfb/TozBcXGICNSjOYA7BfONblyy+Ei3X3ptGZb6Aw1BiAXf64m1MGxRxMVFdXuUsvbCv4Ey1Pd3a5J5/d7zq7XqnMZxNM1NbWuosuuiiaG5gDBw6c8xyJuLPHn0zVaI9Fc8OrquW10VSyYtpXN3Kyq6o/937fBBMIEUwAyQYzmBg/cYp75rnn3bETJ6OU/BTL3ZviCCbKH8FEBoUMJlTp152UVEk/evx46h/XwK5CqEVCg6sHgz73U/sOupPRZy+mYKLn8GOuZ8+t0dzwq2r9U1dzweJo7lxnu4657l03RnPDr2rcb7uaWR+N5noVOpjQg/90a1GCidJEMAEkG8xgYsq0Nv/+/EsvuwMvvpzXjSzq6mrd7IsvcMU4co1govxxa9ghMEWDo2e0+du06XatGvg8kBaFaZPHD1ogIQoMZl4w1d8FqpjoAKtAp5h0nelKPPD7fT2V2638BtuZ00fpPoZ+MZAeGB6Txo91F0+f6m+Skouamho3s21qUQYSwFAo+5YJDYaaM/OCaO4VHcdPuCeffS6ay97YltHugqlD82j67u5u91T7AdfV2VkULROqoHfs/7FreOaTUcrw65xwo6u7aJm/UhvSvh4/9JQb+YvlUcrw6xo1x1XPWevqgzE2g9EysXPnzoI/qRtDY9++fe6mm26iZQKIGYqWCdOp3gGp+sGpzv4vnqnLs+oELU3FNU4iRMtE+aObUwaFCCbGpP6BX9g6JZp7xZlURf2/fvnraC47dXUj3KsunO4HXg8VBRTPPnfQjazO3C0rm2Di17/+tXv00UfdtddeG6UkSxdM6GDe0f4j17hvdZQy/E6Pv8HVX3xTmmDiyVQwsSJKGX5DEUzo73bw4EH/70bzg0EHrKSyM6UbW255w3Xi0xKWF18nzJ/E8qQTbqO/siSeJ2kdS8smr4TpmtZvYcqUKf7EkAnBBCrNUAYTonPvM/tf8N2i09G/WY2RGD+mOUopTgQT5Y9gIoNCBBNNqZPzxRdMjeZecaqz0z3+5LPRXP/0R9KTrBtGFubOTblQxfHwoRejuWT9BRP/9m//5j7+8Y/7gOKpp56KUpMNJJiY+Lq/cMcPPOJOHNzuLr3hB+6X970xWnKuMTNv8O+Hn7jPv8vIcXNTrznu8K9eSevP6QmpYOKi3IMJbb/lkhtcT2eHO37wEXdo99ejJYNnsIMJ0b8ZnXB1IjRWYbX3uHTpoUx58lmWzTbjsl0nzKdpCefjZeSzL5LvenFhOfp3PGrUqPN+z3EEE6g0Qx1MiP5dth980d9pMU7H7ulTJroxzcV/W3eCifJHMJFBIYIJ/YOfNWO6b1UIHXjxkDv4YvZ96ieNH+Ofaj0cOlPfwaGXXojmkvUXTBw+fNi/rrrqqiENJvb/6H+6yVd82HUda/eV9q5j+6JAosp1PPM9V9vU5kaOneuX1dQ2u9EXXOOeC9Y5/MS33YkD23sLT5CpZeLYS0+6Ub9MH0zI8dR+Tvvdv3aH9nzdNU2/xtWObnMHd34ylfYZ19151O9Dw5T5qc/xIdc45UpXP3aOT9Pn6EktVydZ1QObL3hTVF76wETBRNXsO8+pBBY6mDD5VnILUUHW+oU+qKXbL9tWvtscjH0dqGz2h2AClWY4ggnz4stH3KFUQKG7LVbXVLumxgY3efxYV1/X/y3biwHBRPljAPYg0wHoV8+0+zES3anprq4z7rkXcgskNFh7uAKJQhkzZuAP0fE/1Dx+rB3PbHbPPvw/fGW9afqb3POPfdEHEqJK+alDu/0yBSDHUnnrRrf6irwq60rPV3+7qpaJC9/89+6F1P6Mn/NuHyRomwooTh3a41587Et+/1589IuurrHN78u+h//c1dQ1+33V+mNm3uhOv7w7tU6r/xwNk+dHpQ8v/a3yeQ1kXXspQEpKH8gr3X7ZtvLd5mDs60BfAIqLbvl66Yw2N2fmhW7OxRe4C6ZOKplAAhgKFXE3p64zZ/xg65//4im3+4mn/e3fsqWT+/TUgQPZXe3uTFW+x829yY1PvTQturI/8bK/8BVzvZouuCaVdqVfNnbOTe5UqjIuCiDU1cm2oqv8Hc9ujubSyFD36m93j/zqPvdCKlBQAKDWlO6uo6l92eMDiSQKNrTvFjioi1TnsWd9uvZdnyNTK4oUY2Wxvb3drVu3LprLntbbsyf5uwKAcqJj94gRNf4CBIBz8a+iH5PHjRmWcRKl6sgT97mXd693nR37fGuEqIJ94rnt7sDOT/pWgJPP7fBdgY4++z23L5Wn+/RRd3DHp3wFXemq2KurkdL7q5znS4GKtq/9PfbMFr9fp1/a4zqe3uxbJ1547At+f9TNyvKqq5MiHftcB3Z+wn8mBRK2TPlLje781NaWuZk/yfbt292WLVuiuXNdffXV0RQAAChnBBMZjEoFEZMmjI3mSp8eZNbfeIn+ZHNd3VoUeq/c7/PzemnelusqvuZ1VV9dhqx1wvJZer9SFfh0V/szNQL0dmnq3Z9w25q2sRL2bnk1b59LwjI0HS5LJ5vWnYFavHixW7RokVuxYoXr6OjwFXu1IihN71p+2223+XS1SCjP/fff74MDpSnfAw884PNYeTt27PDTYuVv3LjRz6tMW2/Dhg1+XaWtWbOmb7taJ5/WDwAAUNwIJtJQBVX9IouxW8pwyrUyrG5Ng9W6YIaigl4qNm/e7IODpUuX+kH0ml+7dq2vzM+ZM8e1trb6fNdff7178MEH+wICo+WbNm1yCxYs8AGEylBAMG/ePL9cAYdYHmlubnZ33nmnu+6663wwoXdZtWqVf6KzylSaggztGwAAKB8EE2lMnjB2QE/JLkelF1hVXiCoyrp1W1JAcc011/Q9wE6V/pDmk+7aJVqmYEGtCxZIiNItILByFTBs3brVtbS0+Pk47YteCi54mB4AAOWl7IIJPQa/bfIEVzOAQVKjG0a5SeMGfvejcuNbAGqK657aPVWjoqnz9VSPcmercrvt6mDqrhn8O4ItXLjQtySoheCuu+7ywYK6O917771+sLR1V1KXI7VWKOBIR4GIWhOWLVsWpTjfuqHfgcpUACEKMFS2WkHM7NmzfTcptYBombpRaZ8AAEB5KbvnTNTUjHATJ0/x94P+9b4D/uF0uRhRU+MundGaCkqK57ZvhXjORC7SPWdClchDhw655557ru85B2qtULq9W5rYfChdvvg6Nm8sT5hX99qfNGmSmzhxYvJzJo4dc/v37/fv8W2E5SeV3V+e+HLJtL7uADJ+/Hg3efLkQX1onVFAoUp+UkuAggh1fRLr9pREg6sVkKg7VJzKD9eNt1ZImCeeHwPDcyZQaYbzOROljudMlD8eWpfBQIIJOdPd7doPvuAOH03/OPy4Ga1TXEtTYzRXHLIJJlQpveSSS6K5gbEKeJKTJ0+6I0eO+L+NCSvYxub1Hi6z93Q/+ng5ISvPplWhUoVZlfH47fq0vDMVSCoo0m9IJyKJbzfd/sTT9W5lGKWF+5SJ9m/06NH+VZMKWM1gBROZqFvSDTfckLHLkSr/ak1QywJBQPEhmEClIZjIH8FE+SOYyGCgwYSosqenXT//0uEoJb0pE8f5p1oWm2yCCVHrRPwKfa50wO7vO+9OBWn6XsOKtFW+Q+EPO93y/tKTpq1cvesVDySM8uqlz5RUXigsO55X76H4+rY8XD+eZq/4vhY6mFCXIp79ULo0tiQco5IOwQQqDcFE/ggmyh/BRAaFCCbM84cOuwMvHDqvImimjE8FEhOL8zaw2QYTKD2FDCb0237ooYfchz70oSgFpeaLX/yie8tb3tLvSYFgApWGYCJ/BBPlb7iDibIbgJ2OBlRfOG3yeVfuNVB7+pRJRRtIANlSi1HY/QylR4GiKk0AAJSKigkmRGMhXnVhq5s6cbwbP6bZtU6e4OZeMsONG8PtKlEeFFCgdCmQIJgAAJSSigompLZ2hJs0foxrmzLRTRjb4qqrh69ZCCi04WzmBAAAladixkyUMsZMlK9CjpnQvxfdgekjH/lIlIJS89d//dfubW97m7+ZQiaMmUClGcwxE6NG5XYMLjX67k6fzv8OgCh+jJkAUBC0SpQ+/obA0Dt58kRZvwgkMNgIJgCgSKS72xwAAMWKYAIAigQtEwCAUkMwUUZuu+22814dHR3R0nPpwWbplsm6devc9u3bo7leyr9mzRq3ePFit2HDhijV+XwrVqzw6XpycpyeuKxl2p9wubZh6Zn2BagUtEwAAEoNwUQZuf766/3rgQcecPPnz/fTTU29t73dt2+ffxdV3FX537x5c5TSmxZW6Hfs2HFeYPClL33Jl3PzzTf7QGDv3r0+z5IlS9x1113nFi5c6K699tpzytGA4I0bN7qlS5f6fVHgYOnaT6WrDEtH/qiIlgdaJwAApYRgoozMmzfPv8JpVdQvv/xyHzxcffXVfl6BgN7vuuuuvvmrrrrKLVq0yLc8pKMgYc6cOb7chx9+2LW2tvqAREGEAgVVZh988MG+AEYUMFigsWzZMh+kqBwLJJSu4ETpAAgKAQClhVvDloBcbw07a9Yst23bNl/ZVzciVf7D1oS7777bBxZr1671y1SRb25udkeOHPGtDI8//rhfT0GAWjdE3aKUpnwq99577/Xpq1evdlu3bvX51GqhsjZt2tQXUMTLsX1Tum1fAY32x/a5khTy1rBK/973vuf/DoNVIVW5Q3HlfLC2M1T7nw/t14UXXuj/LXBrWOBcg3lrWKDUDfetYQkmSsBAgglVTFauXOkr89a1SIFAGEyoYn/06FHf6qDlScGElqvVQhV/BSZaTxSgKICw4EKtIH/3d3/nZs+e7eeXL1/uu1xZdyZtd9euXe6//bf/5tNUvgIVdY/SditNIYMJPf360KFDPihUHjuwWAU6fJdw2oQHo0zLQkn54mnS3/q2XpgvLCtcFpYf5gmn8xUvw+YzlR3fBwnXiaclTdfU1LiWlhY3fvx4P50JwQQqDcEEkB7BRAYEE70GEkyo5UDdiu644w536623+pYFBREWZKiir2nl3717t09LCiZUhq2vdJk7d64PBNSFSuMiFHCoZUPBgro/qWwFGgo41BqyZcsW34qhrlBK0/Sdd97pp/WPQHkqTSGDCVVI9W9GL9F3qrT4dFiJjQvz5SNT2ca2kWlbYTn95c8lPV3eJGHeXMvqbzvpylOLhAIFTWdCMIFKQzABpEcwkQHBRK9cgwkFAvfcc4/vamQtCqrU2/gEpWu8hCr8yqe7LalirzENSlMrg4KQa665pq8FQkFDfDyFAhS1QKg1Q2Uo0LBWC42/0HJNW1coBTcKZPQe7leYXmkKGUyE9HdUlzb9DfU30rxantra2vxytVIp2FOXKL1LPA+KF8EEKk0+wYSOaeENQYBypHP4q171KoKJdAgmeuUaTKB0DEYwYa1ROsCo1UeBmt3mV8GeptUitGrVKn8XLbVKiVqoFEhWYlBXaggmUGlomQDSo2Uig3yCCVXORozIPHix1Kg7RFdXZzSHclLoYEItPgsWLHA7d+708xqnopdY4KB3BRrqrqZWLAUY+o2ptcrGvqC4EUyg0hBMAOkNdzBRdreG1QGns/N0Wb0IJJAttUiEt+ZVK4O6mumlaXUr08u6r+ldLRXqqmbjYwAAALLFcyaAMqKAQa0TGi8h6uaklyhw0LTyWFcm3VFLgUQYYAAAAGSLYAIoM+qqpFvyagyEggQNrBe7PW/YAqFB8xqgrYHXFmAAAABkq+zGTAClZLDu5oTyxpgJVBrGTADpMWYCAAAAQEmiZQIYRoVumVC3poMHD0ZzKDWjRo3yz4PpDy0TqDS0TADpcWvYDAgmUO4KGUzoZPtP//RP7kMf+lCUglLzhS98wb31rW/t96RAMIFKM5jBhG5asWHDhmiul8aRZRPY50oPDNVd9zSGDSgUujkBKIje55F0RXMoRQoUu7u7ozkAQ0GVez1nJ3ytWLHC38TCntNTKLp7XjxwGQg9K8ju2AcMF4IJoEwomKAiWtp09RXA8NCDPB9//HH/WrVqlQ8kkirq+/bt8wGI0bTS0tHyMH8+4ts06tqabcCTrgzJtEy0LP4ZM33mTMtQfggmgDIynM2cKAwFhQCGl7oh6QGgqqzLbbfd5mbNmuWDiwULFrj169f79NWrV7urrrrKp11++eXnBR9aT+l6rVmzJkrtpQeGWpnGtmP27NnjWx+s/GuvvdYHD3pZPrV2aDoeVFgelalWFisjbBnZsmWLT4uXL9ovra/89hm1L9onWyfeeqPvxZZp3fhnRnkimADKCBVRABg4VZB1NV7P4glt3brVrV271s2fP99Xtjdu3Oif3aPn++jBn+oiZZV1VaxV0dfyu+++24/NUEU8W9oHdbfSu9bXdnXFX8GBAh1tU7RdTad7VpDtg1pbtJ72UZ9N+6Oy2tra/PrahvYvHgBo/TvuuMMHCAqubr/9dj9vzy6yYEjjQe68886+7+Pmm2/230Uhu3WhOBFMAGWCQKI88HcEhsfevXt9xVgvXYGX+EBpVbjVHUoVeFWyVYFXJV3zquyrsq6r/aLlCkZUwdZgbi3Pxe7du31lXZVyra/tqgxtS63Qehftg00n0XorV670n0XTCiL00r7t2rXLV/w14FwPMNX+xwMefT6tZ9+FggrNK120j2Kfd8mSJW7atGm+lUNlKh3ljWACKCN0cyp9/A2B4aFKtA3AFl19V6U5FF79VyU6nFdFWi+rXOvqvyrnIVXas6XgRsJtKKhQcBEvN5P4PobUerJo0aK+Lk4DYUGKgg176TMoDeWNYAIoE6qEclUbAPKjwMEGYG/bts1fYc9EFfr4oGW74m/iyy3QSCeseFvAEA5m1voaaxEvNx+bN2/uazXR51UrRTzYyIXWVeBi32H4XaK8EUwAZYSr2qWPvyFQGlQJV2uGjQlQ9yhV8pUuujKv4EDpCgj0HgYTGqsg6gakAEGtBBqTYTT2QDZu3OjX00vdrzRmIWyZUHo+d0+ygETjPxQEaB/C/cuVulppffs+NK1WDwZhlz+CCQAoIrQuAaVBYwZUCVdlWXcuUvcoVahtbIG6I2m50hVYKGjQGAKjZWoNUaVbrSAKGsKxD7rSr20oYNFdk/RScKLuV0bra1C0ys+1tUJBj/Zh+fLlvmwFKZrPlz6vPod9HypT+xQfd4LywxOwgWFUyCdgK/2+++5zH/nIR6IUlJrPfOYz7g/+4A9cbW1tlJKMJ2Cj0gz2E7DVt18V6XSVaVXoVTFOGuhsz3rQuumWaxtqAbAWhHDshN1+VmlaHt+OyrbtKwCIj5cIyw+XJX0ulaWXlR8vO9w/y6tplZtUnratZeHnUXnKp/T4PmFwDPcTsAkmgGFUyGBC/15+8pOfuJ/+9KcV//AzXd23MSTDeoCN9iET20f9Fi699FL35je/2QcLmRBMoNIMZjABlDqCiQwIJlDuChlM6OnXhw8f9lePdOINK7HZVKqVR/ujd8sfXy+pnHiaprX9eL6Q1jFJ5YmlJ5Ufrp9JfF1j6emWhyxff2WF4mlWRib67tWtYezYsa6mpiZKTUYwgUpDMAGkRzCRAcEEyl0hgwnRvxkFFekqvtnKpvIbim9P8xaYhKzcbMq3PJY/V9lsIy7cVjbbtW3E38NlcenSRUFEf12chGAClYZgAkiPYCIDggmUu0IHE6gMBBOoNAQTQHrDHUxwNycAAAAAeaFlAhhGtEwgH7RMoNIUsmVCXQmnTZvW79ikbKhb6bPPPuv3DxgudHPKICmY0C3H9AJKhR5MlHS7QCGYQD4IJlBpChlM6JhrD4wrBAUTJ0+ejObKw9mXfpyKlI5Hc0VixGhXNe63oxmECCYyoGUC5Y5gAvkgmEClKcVgQjda6Hni8+7sC5ujlCJSP9nV/Ob6xAqo9rv7kbdGc8Wl5sp/GdZKc7FizAQAAECZUQB09uRz0VyROX3QX7BNUswXcbnAXJwIJgAAAApM4ym6e7qjueKTFEyoVSJdkFEMinnfKhnBBAAAQIweAqpXvtQy0dOTuSd57eg2/5KR4+b69yTVdc19+Qol3aDxdM/BMdqXhinz/Wuoad/62z8MPcZMAMOokGMmdIDt+c8V7uyJJ6OU0lDV/FpXPffT9IPNAWMmUGmGeszEF77wBbdhwwa3aNEi97GPfSxKTZZuzISO02f33OZqT+2NUs438XV/4bqO7XOHn7jPzXjzN9yvv/vHvrJek3opXRRENE6e799feOyL/l3LFHyMm3uT2//vHzpvnWycfPW3XFNTUzTXS+eRY8eOuVE//8Mo5XxjZt7gRl9wjTtzrN2d6TziXnzsS36fujuPup7UK9wX21exaS23fCbbfT8+9x9cS0tLNAcz3GMmam655ZbM/0qGkQ4eaiYEypX+8WfzxOOQ/l0ooIhT2tnnvu2qiu0OHP3RVabJi3xghezou1JAAVQKVXIL1cVFx9zm5lcqskkUCMyePdu3TPz+7/9+lJrs6NGjicdkv78vbnU1Z16MUs7XOOVKX7E+9fIeN+aSG93xg9vdhQu/7mpHTXRjZv2Jqx5R7yvvDal8XanKuwKI+paZbvxr/tx1dx11zdOvcaePPuGmXvkpXyEfOX6uO/nCo1HpmZ2Z9E5XX18fzb2is7PT1T7/rWjufNqHMydfdCdS+zrmkhtS5zHnmlL7MTa1/52pfZl+1f92DRN/041N7b8+39me027crD91oyZc5ib/1v90p1OfVfnrmtpcXfNMnyaNrW/0ZWaifa6rq+PiU8xwfyecvYEyoBOtTgBn0zRbFzPte9KJGACGS38BxGA6dWiPO7Dzkz44aJh8pXtpz9fdy6mXl6ovKr1udJs7cWC7z1ulxIiOp9lS3lzyh9TFafIVH/YtJU3T35QKiDpc57FnXW1jm9+nQ6n91f51PPM9N3JsKgAaO8cd3Pkpv0wtGFpf651+ebf/PL0vWhxKFcEEUCbS9X8tdjqVleq+A8BAdDy72bVcckOqYv4RXxmX3or6R1IV793u+IFHfFeocXNu8st0Rb+n66ifVovGyHFzUpXzI37edx/q6vDT2RjIlexjz2z2wcGYmTf6fVQXprrR013X8eSuSurCpOCjdnSr/1zqIqX9tuDC50mzLoofYyaAYVSoMRO6uqR+rvV7/y9XnaFJvRj11E50Pa/+CmMAcsCYCVSaoR4zIevXr3e//vWvB3XMhFTXNbma2hZfmValXMHDC49+sa9yreW68q93Y/ktTcvVKpBLhTzfMRNJ2wzTkvY3vn9hfsl235P2GTxnAkAB6CBSiAPJxMv+wvd3nXDZ+6KUc+lqGQBUAnV1WrZsWTSXn2yOyqpQW0VarQ0vPPaFcyrWVuHWu71eyd87L9lUxgshaZthWvgepsc/k6VLtvueb7csDC6CCaBMDPQg23zBNb6MZx/+H66usc3Vj5vjpv0fn/F3C9FLTdRqUteVMwUVE173F34g3rTf/YxrSq07EJwgABSbGTNm+NdA5HpkU5cfDbRGepwvig/BBFAmBtoyUV3b7Puxik5mNan56tomd+RX97mGyfN9/1gZP+cmf8KrG93qgwv1he14ZrNfBgAoDTpnJFXMh7O7TH8K1QqPwiKYAMqATggDvVqjgYBqYdCt/jQA8NTLu/uaoXWnDWt98PcS7zrquo63cwUNANIo9ivo2r+kinkx73exf6eVqiwHYO/Zs8dt2bIlmjvfNddc4+8fXUg7duxw27dvd9dff71rbW2NUtPr6Ohw9913n9u7d6+bN2+emz9//nnr3X///S719zmvzM2bN7udO3f6QUi2LkpTsQ3A1p026hqnu5Mv/5cPJDSvgEHvGvAnCjIaJ1/Z2xx/vHfg3UCCCg3A7v6NL7tRo0ZFKegPA7BRaYZjAHa2Mg3A7n78467+xP8XpRSPMzXjXdec/5U4mFn1k5NP/K1zp59PzRVPFfFs3SQ3auZ7/D7TOnGu4R6AXZbBhCrht99+ezR3vjvvvNNX0DPRXRy2bt3q7r333igls3Xr1rm77rrL51cFPxP9Q9VTNRUoKEiw902bNvl/JJq/7bbbfIAiYZlKf+CBB3x+PShHZa1cudLdfPPNfjlKSyGDiePHj7u6PX9ekndzIpjIDcEEKk0pBhN69s+BAwfcyy+/fN7tr+0Ku1UAw3lNh++heFpSOUnLQ1quyqfqEfou4vn1WZ5//nl/TomXnyTcRtJ+2HSYLx3LF+a3ae3z5MmTcz5nVgKCiQwKcWtYCyzSBRD79u3zj2aPR+dWaX/88cejlFckrZNLMKGWBQsA9K6gYfHixW7VqlVu6dKlPtDQj2LatGl9AY3KVMvHkiVLfB7lFa2n9Xft2pV4hQHFrVDBhCiw5NawlYFgApWmkMGEjrvTp0/37wOleooChqQHb3Z3d/t9Vqux9r+/SnVSBdqmTXxdy2d5kpaL5bF3XbxRnUFPA4/Tfusco88WFy8n/h4K0zQdCvPasvj6Eq6nfdX5shB/t3JDMJHBYAYT6gq1YsUK3wogc+bMcXfffbeP1K2Cbqzir7LWrFnjK20SrpNLMJGUV/ujx/urrA0bNviAIZ7Pum+F3Z5Wr17tNm7c6LZt29aXhtJRyGBCJ6xSbJk4U3+hc3O/SOU4BwQTqDSFDCaGkirmov1PV9kOK90mrGAnLZd4erw8K0Pi5ei9pqbGT6dj64dl2fpJ2xBbHhduO76uTSe9i+UTS8O5CCYyGKxgQgGEAgbRFX4FB6qUqzKvSrkq7arIW6uAKumK4K+44gofQGgdlaHWi4ULF/qAIpdgwvbpnnvucQsWLIhSz9dfmeHn0H6j9BQqmNDBVifaF5/Z6U4de9H1qJ9r7F+2jjPBMblXeOzRMs2H70lSy87JlproPYadf2Lx/LIUW2Qrp1SnpkeOudBNnv5aKsc5IJhApSnVYAIYCsMdTFRkW5G6C6kirtYGBQPXXXedbwlQmlokFDAosBBV4hVMaF5dnlSx13IN4FaAoXELubBAQpYvX+5mzZrlg4ZcKQBSy4q2r30CVMGsGzPLjRj3m652bOqVeq8b/3r/rteIKO2cl9LsZfPhe9IrtUxljRhzWV+ZNX76svPz6qU8YXnh9PjfciObL+z3ChkAAChOFRlMKGgQBQXGughpPEQ6qvRrPMPll1/e1yKQK915ScGL6H3t2rU+oMmFAgltX/v66U9/mu5N8Fck1J90woQJ/vegwYV6adyNTdsrXJ7Py9ZXn2NLC6fDl+XVe3w9vWv/xo8fn9hvFwAAFL+KDCZsoLIFFWItDBpYnUSDptXlSBV/dSnSgGdrvciFKlTWtUmtHgoowqCmPxZIqCuWAolM3aRQWdRlSpVydX+xlwbZhfPp0nJ55bK+5dW7TdfX15/zrhYVAABQmioymJg7d65/V0uDAgq9NIhZFf342ARV2lWBt8DDngdhXaVypbI0FsOoHHv1V14YSCgIGT16dN+6WgYAAAAMpYoMJhQwaLyEKuVXX321f6ll4o477uhrtbCuR9dee60f52B3UNI4B+XXuAfN50otHLrlrKgM3erVXgoKMtG62mdRGeG6lg4AADLTOV/n9vgrXzo/J13U03ld5YYXC5VPaekerqvzuZbH6wRJZQHFoOzv5qR/dHqpK5EFCkbpVglXi0O65VpXgUM8v6a1jpZn2k7I8iWJrxsvM5d1URoKeWtYVA7u5oRKU+i7OSmY0K3e9a7eAjaWUeMYk+giot3dMYmWa92wd4N6P+jCn9J0cxc9mFbbUw8DnbNVh9CycJsKGHRzFV3Q1Dq6OYxeCiK0v0pXEEI3Z4S4NWwGhQgmgGJGMIF8EEyg0gzWrWF1gU6BgD2gVvN61pNV9NWLQZV4pWleAYUq8woSFBgsW7bMV+qTggkFDQpS1LNB6yiAUAvG3r17fU8Ira+AwQIZ0Tq2XeXVreh37tzpb/6ibSnv+vXr+25dDwi3hgUAACgCak1QJV+VeAUAahFQxV7sXWlqLVDFXs+bSqKgxIIFlaMWBbVqKJDQS12mFTjE7yCp9dTzQTS+U2WoW5TWsVYRBSWaB4oFwQQAAECKKv5qSVCF3boaWRdiq8wrXS0V1jqRREGBBQEqI6Ry1KqgB97qLpHxsRY2b2Vr+3RjRjEjmAAAAEjRLd+tMq+AIH4LeHV/uvPOO30rhVov0lFXJT3cVl2gwnwKJCxICMu28ZhaxwZeK01Bjejd0hXwKB9QLBgzAQwjxkwgH4yZQKUZqjETam1QVydV9FXpt0HXyiOatwHUWq5WB60bHzOh8Q4rV670LQoWNGhdzesukSpTwYLGQeiOjFdccYUfoK3lKl/LtW8aW6GARHmVrgd+qmuU8ioPIAzAzoBgAuWOYAL5IJhApRmsYEJUaQ8r5mqZUIVdFfewe5Hls+UKKCxN7woaLL/yxLtAhdtQcBCWr/zhtLVKhNtPlw4QTGRAMIFyRzCBfBBMoNIMZjABlDru5gQAAACgJBFMAAAAAMgLwQQAAACAvBBMAAAAAMgLwQQAAACAvBBMAAAAAMhLUd8atru7298eFihXupVbfX19NJcd3SKxs7MzmkMl0q1h9QIqxWDeGvbQ8fKuZ1RXOTemoTaaQzniORMAAAAZDGYwcfBoeT/PqiYVTUwYXRfNoRzxnAkAAAAAJYlgAgAAAEBeCCYAAAAA5IVgAgAAAEBeCCYAAAAA5IVgAgAAAEBeCCYAAAAA5IVgAgAAAEBeCCYAAAAA5IVgAgAAAEBeCCYAAAAA5KWqvb39bDRddJ548in3o5/siOYAANmaMnmSe9PCq6I5oLT19PS4EydORHOFdfDo6Whq+I2oqXHNoxvcqJEjXU1NtXNnz7rOM93u+ImT7vjJU/57yFVNdZWbMLoumkM5amxsdFVVVdHc0CvqYOK7m7e5z/zNumgOAJCt177mN9znP/2paA4obeUcTKgS2DhqpJs0fqwb3TAqNR8tiDmbCiw6jp9wL758xB07ccrPZ4NgovwNdzBBNycAAIBhUDtihLtw2iQ384JprqkxfSAhqiw2j250F0+f5l51UZtrSU0DxYBgAgAAYIiNGlnvLp2RCgqaRkcp2RtZV+dmtE1xF0yb7EaMqIlSgeFBMAEAADCExjQ1uksvbHW1AwwExjaPdrMumu7GtTRHKcDQI5gAAAAYIi2jG3yLQqH6uGvQ9vSpE93USeOHtd88KhfBBAAAQAJVzgtZQdedmgoZSIQmjRvjLp4+1Y0YMSJKAYYGwQQAAEBAFfK2KRPd7IsvcK+a0eamTRrvqqsHVmWqr6t106dOHnA5mehuUDNTAYUGdgNDhWACZaupqSmaAgAge5dcMNWNH9Ps6mpHuJH1dW7iuDHugqmToqW5q66qche1TXUj9OyIQab9veTCaa6OgAJDhGACJW/2rEvd+q/+327d3/y1u/Ydb4tSnWudNsVdcfnro7n01n/1nmgq2W0f+oAvPyxryZ/+kd+e0rX9NZ/4SLQkvdZpU33+1am88f1a8efvdfNSaenKufqq3/N5bvvQ+/07gRIADI6mxgZXX3f+cxlamhpdfX1tNJebaZMn+JaJoVJXW+tmpgIKujxhKNTccsstH4umi46egP3jR3gCNjL73KdXu1V/9Qn3j99+wFeyr0sFFKrsq0dqfX29DwauuPy33MKr3uin9z7+C7cyVSG/+qrfd/v373dvfcub3Ote+xpfmf8/fve33VO/ftrd9TefcVsf/oHr7Ox0F190gTudev/3Hz/iOjqO+W2+/y9WuP+x4i99nuam0an1X50q95epAOMzqYDm7T79Yx++1W+jo6MjtZ3nUuX/lps4YZy79//5Zmobz7g/e/dSv58TUmnaT+WZPetVqX29PLUfV6bSx/syFYS86w+v89NK0/69IbV8566f+n0BkkyePMm9+ZqrozmgtOkBbV1dXdFcYR0/3R1N9RrT3OgDiiRHj59InRdy248JY1vc5Aljo7mhU1NT41oaG92x1D7Xj2BgdjmrSwW/wzn4npYJlLyjqcq6KvlL/vRd/qq93P2/vpJK7634t6cChntS86J0Vc61rMr1Pj1Ulf07UsGIKvtbH/6+b93Yl1pH6aKAQOus/PM/S2wRsABD62lb7amg4Lp3/IGbNm2aL2POrEv98h2pyv8DD33HBxsLUoGN8iuwUQARUhli+69tK9DQ+7bU/gEABs/xk6eiqXMpoOk83RnNZUetEZPHj4nmhp5aUqYPoHsWkA2CCZS8B1MVdHUPmj1rlg8GxCr4mRztOO4r8q2pSr+CkPb97f5qvyr7VmkPg4dZUVAg2o62qVdvSNIbLDSn8iuAUMtEbzBS5fY8/ku/XAGEWiKURxRISLyFQcvVYqL8YkGFWlfU3WlB6qWABQBQeMdPnHIdx09Gc6946XCHO911Jprrn64UaxD3cHc1qqujqxMGV1V7e7vVhYrOdzdvc5/5m3XRHJCeVfpVgde0vUtT02h/ZT/eqmDp06ZN9cGH1tH4B3WFWvbe/yvK1cvySG+QkHmblkfraRsm3fJwfb3H11ueCnaOpdK1D0dSL1oo0J/XvuY33Oc//aloDihtPT097sSJE9FcYR08ejqaeoUCgUnjx7jm0Y1+/tDho6lg4qifztakcS1u6qQJ0dzw6e4+4144eCCaQzlqbGwc1m5OBBNAIAwsio0CDQ0qb99/oCj3D8WFYALlZKiDiYFS96JZM6YPawXPEEyUv+EOJujmBATUGlCsFXXtlwZhE0gAQHG7YOrgPJgOKEYEEwAAAAUycVyLaxhZH80B5Y9gAgAAoADUvWnS+HHRHFAZCCYAAEDF0lOuC0HdmtomTxqSp1wDxYRfPAAAqFiXzmhzY5pHR3P5mzRujBvdMDKaAyoHwQQAAKhYI2pq3IXTJrtpk8bnPWh6ZH2dmzyR7k2oTAQTAACg4k0cN8a9akZbzt2ealLByEXTpzru3YRKRTABAACQohYGBRTZ3o2ppqbazWid4uqG+SnXwHAimAAAAIiopWHmBdPcmOamKCVZ74DriYyTQMUjmAAAAAhUV1e7C6ZO9IOqk4wYMcJd1DalIAO3gVJHMAEAABCjloepk8a7timT3Kj6Oledmh8xosaNH9PsZl3U5poaG6KcQGUjmAAAAEhj/Jgm96qLprtXv+oi9xuXzEgFFxP9HaAA9CKYAAAA6Ee+t40Fyh3BBAAAAIC8EEwAAAAAyAvBBAAAAIC8EEwAAAAAyAvBBAAAAIC8EEwAAAAAyAvBBAAAAIC8EEwAAAAAyEtVe3v72Wi66Dz2nz93393ycDQHAMjWlMkT3ZI//aNoDihtPT097sSJE9FcYU2Z1hZNlafu7jPuhYMHojmUo8bGxmF9qGJRBxMAAAAEE/kjmCh/wx1M0M0JAAAAQF4IJgAAAADkhW5OAACgqA1mN6dRoxqiqfKk7+706VPRHMoRYyYAAAAyGMxgAih1jJkAAAAAUJIIJgAAAADkhWACAAAAQF4IJgAAAADkhWACAAAAQF4IJgAAAADkhWACAAAAQF4IJgAAAADkhWACAAAAQF4IJgAAAADkhWACAAAAQF4IJgAAAADkhWACAAAAQF4IJgAAAADkpaq9vf1sNA0AAFB0enp63IkTJ6K5c+3Zs8cdPXo0mgPKU1tbm2ttbY3mztXY2OiqqqqiuaFHMAEAAIpapmAiVY+JpoDy1dzc7JqamqK5cxFMFFjP2bPuyLFT0VxlG9s0KpoCAKB0ZQomgEpHMFFgXWe63TPPH47mKtvMaeOjKQAAShfBBJDecAcTDMAGAAAAkBeCCZznv/7rv9xPfvKTc17h4DZNK+3ZZ5+NUoZGIbar9fX50rHPXihf+cpX3Mc+9rForrjpe9W+3njjjX6/S0mh/24AACA7BBM4z0c/+lFfoQxfb3rTm9y//uu/+uWquCntkUce8fNDRdsfyHZVWdb6X/3qV6OU873nPe9x73//+6O5gfvbv/3bvu+t2OlzK4hQ0DZ9+vQotTToN1vIv5vK+ta3vhXNAQCAdAgmkNb27dvd9773Pfc3f/M37siRI76Cxe33cqPAR99hKdi3b5/77d/+bb+/b3nLW6LUyvSP//iP7sc//nE0BwAA0iGYQFq6p/Fv/MZvuHe+853uXe96lw8kkroYKV3dY+bMmeNfuvof5rMWAVuuoCRcru4pWq77J6sFpL8rwlae5Q+7LfW3rThdibe8n/vc56LUV4TlXXnlled0WVKLg9L0rv1Qvjilvfvd7/bTYX7bf5UX/zzh/mr/tE7Sd6PvXVfkbd+s/PAKfbbfrdbTdpVf0/adZtq+Wni0zL7DcLvG9sfyaD78nvX5wzI+//nP+/RM2xXLr1f872afIWyBsu0oYJLw76pX+DtRPrHv09YBAADnI5hAVtQyIUktE6rQqnL3Z3/2Z+6WW27xFdE//MM/jJY6P600LddLV32t4mmVOpX7hS98wQcvf/mXf5kxoND6r371q32Qo3LDSmzSttR1KYmWqZKpLj3Kq22GFXlNqzxVJvW5dLVen9MCCguutP3f+Z3fSbyar3WtMmr5tb7ya7sqT9sIP49VqG3/1Fqg70b59d3Y2AB976owa7vvfe97/Xoq3z6DytJ3K/19t9q27mGtbdi0bV/T4fa1z2KfR125FGzqM8Vpucr57ne/679D0X7aPuh3FZYxd+7cvu0qmNV2Jfzc8b+b0vVZQyoz/K3adkym36Q+v4TfBQAASEYwgbRUwdJLV371rsqVKrZxH//4x33XmA984AO+UqtKpSpuqkTr6q6mVWHTcr3UbUpliSqWqqypMqkKnpap0vsP//APfnkSbUOVSeXV/lhF0rb1iU98om9bFtxYRTSkirhtW3n1GcKKo9ZRedqObVOfQ/sWVlS1PS1Tnmwon7ZnFWp9Bvs82r5VehUkWDczfTdWvn1e+5vY/unvELLv9mtf+1q/3632p6WlxVfgNa1yVb6Efxv7vkLarvZfeZKorG9/+9t+H+0z628VUrrK0GfW38XWUZl613atBSLcL+2rPl8u+vtNal70XWk6/E0AKB2LFy92V199deLrtttui3Kl19HR4c9jes+GHp6nstesWROlZKb82sfLL7/cv7RP4bY0vXr16sQy161b59eZNWuWu/baa93WrVujJcDQI5hAWrpSq5cqparwJl3RFlXMrMuLuoyEFcXdu3f79zAI0dVeVd5EFWNVzFVp1Pp6qTy7mp9ElV5jFUCxbalCbHSlW5LK03ZUYbQyVGkMy7MARN+B7ZsFEmEwEW4vG+H+S7jN+DJ9l+rmo+/VWhm0bQs4wu81nBblUV6tn+13G9LfRmWG34++L9u2UVom4fejsvSygMiE34GWhetou/pebL/1buVI/O/Wn/5+kwDKg46b8+bN8y87Ztt8NsdtHSsWLFjgNm/eHKX0TwFCeH7IZPny5W7Hjh3u+uuvdwsXLnQPPPCADxJkz549btGiRT4tXqYCjLvuusuvs2rVKr/MygKGA8EE0tIAbL10UNPV4aQKmw5i6kakirdaAXTQtW4iYld1wwOhpsMKqfKoImcvXWmOX/3ORrptiS0LhRXUJFax1+cK903fRa4BRD7UjUmBnK7Wa5vhd2L7Fn6P4ec2A/lu030/Sd9lJvH9UpejTGVoWa7r9Ccsz8oJ0zQdD5IAlDZVtNeuXetf+nevMVg2v3LlSp9HV//Xr1/vK/H333+/TxOd91SRF13137Bhg58WLUtaJ1d79+7tCwi0T9ddd13fcWnLli1u9uzZ7p577vHzIe2XAiKts3TpUv8uOl8Dw4FgAmmpwqxXpkqc9UVXhVetC8obdimyq9ZhP3tdKbcuMVrPDp66Uqz8auVQH/tcJW1LZYm1UITsKru1uGi98Ir5m9/8Zv9uV+j10h1+rJvNYNO+KYBTVxvta7hv+p61P/qu9V0pb3wg8kC/W62vcu3vqe1rWum50Hq27/qOtU/2t0pinzXdOvos4d9NrTeWV+z3at2ZtM/hcisn3W/SaF0A5UtBwVVXXeWv8quCfvvtt/suQwow1BqgCr2okm7TelceraOWAK2jrkr5ampqiqZcX6Ajy5Yt84GEAqC4Xbt2uXvvvTeac+7s2bP+PdO5GhhMBBMYEOtuooqZuuHMnz8/WtJLFT9d2VeFTk3OWq5KmrVeqB+91te66oaj5aqwJ1X++5O0LVUilZbUqqI++krX4F5tW1fsw3wqT/3q9dlUnl5qKUgqazAomNF3pX1LuqORxipoX3S3KOWJP0p/oN+tWpzC9bUPmrcxBdlS5V1lqQz7zjOVoRYU5bHuWfF19K55+7vZcqPt6W+nv72W6/sJW5L6+02K8mi5TuQWkAEoLytWrPAV8E2bNrlt27b5FgJrdVCLwd133+3zKd0q7zoeqAXh4Ycf9mmaVlCh4CMX1p1J62o6bPmQMMjIRIGPAhodq7TPwHCoSv0D6A1py0TXmW73zPOHo7niVVNd7erq6tyImirX3d3jTnd2ue6enmhpYcycNj6ayo0qUereEr9Sa3Qw1dVtVdRUibOrv1pHlTAdnNXXVJVhu1Ki5Xpp3ip7IZWnyp+Wq1Jn64W0HT23wbYrSfuablu236pYWprKtCv12q72QfmsVULSlZe0P3FWtgUGYX7bH1XuVa6E+UXz4fcSzy/hvumEov1TtygTL0PvSeLbNmqJ0XccX19lxv/OcbY/ChAUDMXL0L4n/dbC35S+q/g2svm7ab8tTeXoFZaT7u8qWk8tG3rP9J0BGBo9qfPjiRMnorncaRCzjkdhUHDFFVecEzTE09QisWTJEnfnnXf6cQ1G6Qoe1E1JLRWaVrkqX9tRgGEtDOlo4HRI6yqgiVPZ6cpUIKFWER3btH1dHEFlamxsPO+C4lAimBhCCiAmjR/jmhsbXH193Tl/+J6zZ93p053u2ImT7qUjHX56oPINJlAadEVeLQ12JV8tKGo5UWuKlhWDpOAGAHJV6GAiXSVdlXyNR1C+pGBCg583btzoxzOo8q5y1LqQazAhuhuTyrB9SpJuPwkkEBruYIJuTkNAQcTk8WPd3EtmpIKJsW7kyPrz/ujVqflRqfSJ48a42RdNdxdPn+aaRo+KlgLn09V8XUlTdyCdSOyuW7l2QwKASqNuRHqpsm7UxUkUFKSjQEItF+oapcp9pryDRfusQEL7SyCBYkAwMcjq62rdxRdMc1MmjnPV1dlHjU2No9zFbdPcjNYprr52RJQKvEJdc9RtSs+i0JV/XUXTezF1ydE+2YPnAKBY6DipOyGpVUHPd9A4CY2hkJtvvtm/27FUg61tTIMCEFXi1b1JYx1sYHaudCtXtS7ope3bK5tnVGhd7YMCGe2XrRsfdwEMlZpbbrmlOPpDFEhPz1l35PipaG54NY9ucDOnT3N1tbVRSu5G1te5cWNadLsGd/xkbp9rXFNDNIVyNmnSJN/NqRj79WufinG/AJQW3bGoq6srmsudLmzMnDnTveENb4hSnL/5gnoJaJlu/3rxxRf71ga70j9x4kS/XF2JND7ij/7oj3yeRx991N/9qbOz07397W/3ea+55hpXX1/vK/kq97LLLvPp6Xzzm9/0wYDWsaBCL82HA6mVFi/zhz/8od83HVvj64afD5VDY3CHs5sTYyYGybiWJtc6ZaLvvlQoHcdPuGcPvJA6oJ6JUjJjzAQAoBwMdMwEUM4YM1GGWpoaXVuBAwlpamxwl1wwzbdWoDjorkIaq6B3AACASlPRwURNTbUb29LkX4WqoKucC6ZOHrQIUV2mFFCMbmRwdjHQ7Un1sDjdIhUAAKDSVGw3p8aGUW7GtMluxIiaKMW5Ay8ecgdffDmay11d7Qg384JW/z4Untn/vHv5aEc0dz66OQ0+3U1JzyoIn28AACgsujkB6Q13N6eKHICtL/ySC6e52hHnVvobR430z3noOpPdmISQytSdl3R716GiAd7a15NpnknBAOzB99Of/tTfIrClpcUPgtbzHX71q1+5559/3t+b/N/+7d/8XZfUcqFlDz30kLvkkkv8oGlRMKI7hejp27rFn35H4QPp1H1Kz5FQHi3TvB6m9Du/8zt+sJ3o4WzqatXf+mpF0TraPgCUkoEOwAbK2XAPwK7Ibk4NqQp/PJAQ/SGa86yA6zkSoxuGtuuR9ldjM8Y2Z/fYfRSeKuv2hGjRU5O/+tWvuve///3uyJEjftl73vMe9+53v9vPa/mNN97ogwhRPgUCuiuHApK//Mu/9POisvUsCT2MTtSdSgGJPdlZPvrRj/Zty9bXvGh9PYNC23z1q1/tnxKtfVFLCgAAQCFUZDDR3ZOhZ1cenb6aUkHEpAljo7mhpYDigmmT/OBsFA975oMeIqdKvD0LQk+nViCgNL2/853v9M9hUOuBWifUqqBgQdSSoIDg4x//uF9Xz5Roa2vzy0TLFLioDC3X+rfccotfX+UrwNE23vve9/ogRPugbXGrVgAAUCgVGUzo3tDpujId6TgeTWWntnaEa5s6yQ1f41KvC1MBxVB2sUJ6qvBbhV1dn8L3sCKvaQUbalVQa4JaERQEGJt+y1ve4t9FLQzGlutdrR16qRVC1K1KgYm2q9YLLVOLh/Yt7AYFAAAwEBUZTPScPet+3X7gnOc1qD/mgRcOuROnTkcp2ZkyYeyQDbjOpKamxl3UNqUo9gXZUcuCHkSk1gV1UVKrRS4VfevqpIBBYyj0UuCh1om5c+f6YOVb3/qWb9lQ+dbFyrpNAQAADFTF3hr2xMnT7vGnnnXPPve8az/4otvz5LPu4Eu53cmppanBjWspni4jGgeiQeAjUoEFip9aFBQQqLKvbkgaH2EBglhgoWBDtMxaHsSWK5j4wAc+4F9q6VAQoTSVr65SutOUukDpJdzGFgAAFErFBhPS3dPjDh3pcC++fCTnu0SMqKl20yZNjOaKh7o6tU6eEM2hmFnXJ3VDUhcktRqotcJoLITyqCXhyiuv9K0YYTcpBRM2QFsDq9VVSgO9FXwon4IPla08Kl/TohYMAACAQqjIW8MWQuuUiUN+96Zs+QfwnXWubsRwj+Qof9aSoBYBVfw16Fm3XtW8aLm6GNm4B42PGDlypK/QKxjQS7eSVb5rr73Wr6fbxv7+7/++v42rBk+rXL1Wrlzp19XdmNQlSgGDytUy3aJWg/E1r8HcWlfpCki0T2ql0LxaQXgmBoBSw61hgfSG+9awZffQOn2Y45097vDRY+505+AceFqaGn13omLmv4ej/T+8D8VLrRTqmqTKvwUnar1QMLFnz55zWikAAACGQ9kFE1VV1a6xqdk/LfNwx3H33AuH3Jk8HkKXTu2IGnfphW3+Lk7F7hjBRElTa4Xu8KSgQq0KatVQmgZYa3wEAADAcCvbYMKcOdPtXnj5sHv+pcJUrKdPnVhUg64zIZgoDxpErW5KaolQtyhrpQAAABhuZR9MmOMnTrpnnnvedQa3g83VuOYmN33apGiu+BFMAAAAYDBVzN2cGhtGuUsumOZaRjdGKbmpq6t1UyaNi+YAAAAAVNStYWtra92Mtilu8oSxUUp2NEL+otYp/jkOAAAAAHpV5HMmpkwY59qmTHQ1Nf1/fAUS06dO6r3dKgAAAIA+FfvQuvFjmt1FrVNdTXX6r0CBxLRJ493Y5tFRCgAAAABTscGENDaMdJde1ObqEm7zOqKmxl3UNtVNGNsSpQAAAAAIVczdnDLp7u5xzx867E6dOq0CXOOoejd+TEtW3aCKGXdzAgAAwGAimChjBBMAAAAYTBXdzQkAAABA/ggmAAAAAOSFYAIAAABAXggmAAAAAOSFYAIAAABAXggmAAAAAOSFYAIAAABAXnjORBnjORMAgHLT2dnpXwB6VVdXu4aGhmhu6NEyAQAAACAvBBMAAAAA8kIwAQAAACAvBBMAAAAA8kIwAQAAACAvZXg3pyo3YkRtNFfZurq42wUAoLxwNyfgXMN9N6eyCyYAAED5IpgAzsWtYQEAAACUJIIJAACAItLR0eH27dvn34FiRzABAABQBNrb293ixYvd5Zdf7hYsWODfNa/0XN12221u1qxZea0L5IJgAgAAoAgocNixY4e77rrr3Nq1a/275vMNKIChUHPLLbd8LJoGAAAoat3d3f5Vbu6//373wAMPuJtvvtmtWrXKzZkzxy1cuNC/f/Ob3/R53vCGN7jt27e7u+66yzU3N7t169b5YEPpCjbWrFnjNmzY4PNqfu/evW7p0qU+r2gbWtfKU9myZ88e97nPfc5Pf+c73/F5rr/+ej9vtK7K1jrhdqwM0Ta17pe//GW/X21tbW7ChAl9+3b06NG+/Go52bJli/+Mommtp+W2v8iO7mRaWzt8dzKlZQIAAGCYKZAQVf5Dqmw3NTX5yraoYq68qoyrwq5xFUpbtGiRT1deVei1LKTA4/bbb/cVeuXRtMoQpWldCxI0H6fylGf58uV+e3qpDAUZonm1oGi+tbXV59c+bd261c9r/zdu3NiXV2XppYBHtF3Li9JCMAEAADDMVMFWRVoV/Thdrdfy0Lx589y2bdvcnXfe6davX++DCnWNuueee9yDDz54TkCgdRVgqNvUvffe6/OsXLnynMq8qEVg165dbtOmTVHK+d73vvf5MvQSBQCiYEXb+bu/+zu/H9oHfRali7atFhDtp1pXRMttWsGHPhNKD8EEAABAEcjl7k1hNyQLCKzLkIICm5bdu3f7d+VT64FeFgTYMtGg7/7Mnj3bv1sLggUtChS0XVtu+2ABhAUKChoscFCQpGkLKMJ9RukgmAAAABhmqlyrYq7KdUhX+5UWjk2IS2rNCFmQogBA29FLgYNaJ+bOneuXDVRSIBS2jsyfP9+/K3DQ51HgoH3QtH1mCzhQWggmAAAAhpm1NGjcgnVpUgV99erVfjo+liJkgYZVyrWeTYtV5BVMaIC3XkpTEFKoMQoKDMJgSPuglhDruqWWCgULGjuhz6ftX3PNNX4dG9hdqH3B0CKYAAAAGGaqaKuSr25BV199tX9dddVVvjuSAg2NOUhHy1Vh1+DoFStW+PXCVgFV0rW+Ku1aroHXyrtx48Z+WzWytWzZMl+WytY2NPhaQYM+k9FnVJr2R92h9K6XAg9aJUoXt4YFAAAlo1xvDSuqUFsrglx22WXujjvuOKdVwroTKZ9uuyq66v+2t73NBxCnT592N9xwg+9GpMq9rv7X19f7ed2q9dFHH/VlvP3tb/cDpbVMtxbVuldeeaW7+OKLfZlxWicsTxQYqJuU9tv2QWkvvviib2nQvofjIJRH+6cyXve61/Wlqdw//uM/7vs8yM1w3xq2KvVHPxtNAwAAFLXOzk7/AtCrurraNTQ0RHNDj25OAAAAAPJCMAEAAAAgLwQTAAAAAPJCMAEAAAAgLwQTAAAAAPJCMAEAAAAgLwQTAAAAAPJCMAEAAAAgLwQTAAAAAPJCMAEAAAAgLwQTAAAAAPJCMAEAAAAgLwQTAAAAAPJCMAEAAAAgLwQTAAAAAPJCMAEAAAAgLwQTAAAAAPJCMAEAAAAgLwQTAAAAAPJCMAEAAAAgLwQTAAAAAPJCMAEAAAAgLwQTAAAAAPJCMAEAAAAgLwQTAAAAAPJCMAEAAMrW9u3b3W233eY6OjqilFesWbMmmuq1Z88ed//990dzALJBMAEAAMrWAw884Hbs2OE2b94cpfQGGHv37nVbtmzx8wo0NK1gQnk1r+UWWCi/5RWbb29v9/N6V16bByoJwQQAAChbCg7Wrl3rgwpZv369u+uuu3zl/+jRoz5t0aJFPp/l2b17t1u+fHlfkKD8Ci4WL17s026//Xb/vm7dOl+G0quqqtzq1av9+kAlIZgAAABlSYFAc3Oz27dvX1+Lw9atW93NN9/sVq1a5ZdZa4LmlyxZ4qdl3rx5Pp8FGCpDLRdNTU1+XuUpj1FLxcKFC6M5oHIQTAAAgLKkCr4q/Go1WLBggQ8uFAyom5KCCL0sOLD5uNmzZ7vrr7/e3XHHHW7lypU+IFHgoZe1UNi8xmAklQGUM4IJAABQdqwLkyr51113nVu2bJkPBBQUqFVhw4YNPsBQ64TyaJC2AoE5c+b4NL2L1lPwoW5P1dXVPvhQkKIuTSqrtbXVz2v9973vfX4eqCRVqX84Z6NpAACAotbZ2elfAHopyG1oaIjmhh4tEwAAAADyQjABAAAAIC8EEwAAAADywpgJAABQMrIdM6HB1keOHInmgOLW0tLSd2exXA33mAmCCQAAUDKyDSZ0B6bu7m43Y8aMKAUoXj/5yU/cDTfcEM3lhmACAAAgS9kEE2fPnnU/+tGP3NVXX00wgZLwiU98wr3zne/0gUGuuJsTAABAgZ05cyaaAoqfWtFKFcEEAAAoO2qdAEpFKf9eCSYAAAAA5IVgAgAAAEBeCCYAAEDZqaqqiqYADCaCCQAAUHYYMwEMDYIJAAAAAHkhmAAAAACQF4IJAAAAAHkhmAAAAGWF8RLA0CGYAAAAAJAXggkAAAAAeSGYAAAAZYVnTABDh2ACAAAAGGalOtaHYAIAAJQVBmCjFJVqi1pVe3s7/+IAAEBJ6Ozs9K9MFEzs3bvXPfroo667u7svTeIVNqUrzd6TJC1Llz9MT5pOt9yE+SS+3MTLiUtXRlh+urLj4ttKWi9TeUnLLE3vJmnehPnDd2PrJS0zYZ64eLnxMtKVKfFyk8qSdOtXV1e7iRMnugULFvjpXGmdhoaGaG7oEUwAAICSkW0w0dHR4Z5//nl3+vTpvkpdKCktifKpsmYVwlxk2ka6ZUqLbyvMm6lMyZRX8/ZZMpWjdC3PNB1SWj7fUbw8Tcf3KWmbYb7+psO0kC0z8fn4euFyvevz9vT0JJYt8fXDeSvH5mtra9348ePd2LFjfbm50joEEwAAAFnIJpiQrq4uH0iowmeVN1EFLlMlUOIVwXglMM4qliZcN75OprK0LJv0/uaTJOWxtEzL0sm0rumv3HTrZlN2kmzyZ1tmLvuQlEdpkm7dsHy96uvrXV1dXbQ0NwQTAAAAWco2mDBWYYtPx1mlzyp5Jmldm073Hqf0ULbrhmlJy9NJKjPd+kqXpPzGlpl4meF6cfFlYTkSlmWsTJs2YVnxckPxbZikdW06Xl5/5YfrJL1LuL4ts2kJlw8EwQQAAECWcg0mgHI33MEEd3MCAAAAkBeCCQAAULbuv/9+/9q+fXuUMvg2b97sB4ADlYBgAgAAlK0777zTtbe3uw0bNrh169ZFqZnddtttPgDJ18aNG93Ro0ejOaC8EUwAAICy1dTU5G6++Wb/euCBB3xgsXjxYv9as2aNz7N69Wq3aNEid+2117o9e/a4HTt2uLvuuuuc1gXlV56rr77apysw0bzS9UwLlatlCkQskFi/fn3ftpQHKEcMwAYAACUj1wHYV1xxhX8YmCr78+fP93fSaW5udkuXLvWV/DvuuMMtX77cLVmyxM2ZM8fNnTvXBxfz5s1z119/vS9D3ZYefPBBd/fdd/tAQwGK8u/cubNv2bRp01xbW5svV0HGPffc48tfuXKl37aCCa0PFBoDsAEAAAaRgoK1a9f6in2cWhHUFaqlpcXdfvvtvmUiTi0RCiDkyJEjPhgxmk7XpUnpCjAUpCjIAMoRLRMAAKBk5Noyoa5H27Zti+acbyVYsWJFX3Bw7733+pYEVfr37dvnWxS2bNnix1hoWWtrqw8K1AVKQYGCDaWrC9P+/fv9OmrdUHkKRvSubSiPylHXKqWpVSQpmAEGiudMAAAAZCnXYCIdVfgVKBjNq5XBgoywNcLE17ExFeE6Eq6XlAYUEsEEAABAlgoVTADlgjETAAAAAEoSwQQAAACAvNDNCQAAlIxsuzlprILuvASUAt1NLN9xNYyZAAAAyFI2wYSeJbF9+3bX09PjZsyYEaUCxesnP/mJu+GGG6K53BBMAAAAZCnbYOJHP/qRvy0swQRKwSc+8Qn3rne9y1VVVUUp2WMANgAAQIF1dXVFU0Dx6+7u9kFwKSKYAAAAZaVUK2WoXKX8myWYAAAAZUVdRfLpLgIgdwQTAACg7NA6AQwNggkAAFBWFEjQMoFSw5gJAACAIqBAgpYJlJpSDYAJJgAAAADkhWACAACUFVolgKFDMAEAAMoK4yWAoUMwAQAAyg4BBTA0CCYAAEBZoZsTShF3cwIAACgC3M0JpYi7OQEAAACoKAQTAAAAwDCjmxMAAACAvJRqN6eq9vZ2OhUCAICS0NnZ6V+Z6Arv3r173Y9//GN35swZPx+Oo7BKW3glOCnNhOuGwnXieeLLbDpJNsvTLZP+lifJtswwX3ydQm03m3KVlk7SPoT5tdzKTCo7Ll0eKzNdOeE2xJanW8+mR4wY4ebOneuuvPJKV12d+3V+rdPQ0BDNDT2CCQAAUDKyDSaOHj3qXnzxRXf69GmfFlb0wnebjrPl8elMwnL1nrReuDxTmfHl+ebXu9iyeL4wTzrxdbIVX6+/cmxfLJ/N23t/LI9to7/10i3vbz0tC/PY9qS/dZPU1ta68ePHuzFjxhBMAAAADKZsggnp6ury+Xp6eqKUc8UrfVYhjKeFFUZNh2k2H6ZJPG/4LvG8Ymk2L2FavBx7N0nzYmnxebE0Y+WG4uubdHmVFm7DWN5wvXh+VYr197K0MJ/YfLhOfFkoXoatF+ZNl0cyrRvmSbfcpsXySzy9pqbG1dXV+aAiHwQTAAAAWco2mOhPvLKXSbq8VkFMV064XjxvfFm6MoZSfD/6m09ieZLypls/l+1oWai/fOmWxyVtM9yWLQvzJa2TTrq8uZSRznAHEwzABgAAFSeXCly6vErPVE64LJ433fRwiu9Hf/NJLE9S3nTr57IdLQtf6fS3PC4pr5URLks33Z90eXMpo1gRTAAAAADIC8EEAAAAgLwQTAAAgLK2Zs0a197e7qe3b9/u7r//fj8NYOAIJgAAQFnbsmWLW7FihZ9WULFjxw4/rcBCyyzQ0LMplKb5PXv2+GXG8gI4V80tt9zysWgaAACgqHV3d/tXLjZs2OAuuugi9+STT7rm5mYfLOhd6RoAq/f58+e7t771ra61tdW3ZOiOUWrB0LvW27hxoxs5cqRbt26du/7666OSgeGn33C+t5UtBFomAABA2bvjjjt8y4K1SihoaGtrc7t37+5rmZg3b567+eabXVNTk1u6dKlbuHChf/jdAw884Jfv27fPt1gAeAXBBAAAqAj33HNPX1el9evX+6BBwUOcWi1Cs2fPdsuWLfMBycqVK6NUAEIwAQAAypqCAQUIao1Q8DBnzhzfVUmtDBonoRYJUbpYfrVc6KVAYvPmze7WW2/1DwgD8AqegA0AAEpGoZ6ADZQLnoANAAAAoCQRTAAAAADIC8EEAAAAgLwwZgIAAJSMbMdMdHR0uCNHjkRzQHFraWnxdxfLx3CPmSCYAAAAJSPbYEJPrNbD7WbMmBGlAMXrJz/5ibvhhhuiudwQTAAAAGQpm2Di7Nmz7t///d/dggULCCZQEj7xiU+4d73rXf5p1rnibk4AAAAFpGBCrRJAqThz5oz/3ZYiggkAAFBW8rm6CyA/BBMAAKDslOpVXlQuWiYAAAAA5EyBRKm2qBFMAAAAAMOolLvmEUwAAAAAw4xuTgAAAADyQjcnAACAIsDga2DoEEwAAAAAyAvBBAAAKCs8ZwIYOgQTAAAAwDBjADYAAECRoHUCGBoEEwAAoKwwABuliLs5AQAAFAFVyggogKFBMAEAAMoKgQQwdKra29v5FwcAAEpCZ2enf2XS09PjHn/8cffoo4+67u5un6YAw1osklouwmWhTGnx93SS8outk836EpaRq/h68X2Is+Umm20nrSO2XtL6YVp8fbH1bFrC8pLYMstvMqXF39NJyi/x6XTi5Wu+pqbGTZw40S1YsMBVV+d+nV/rNDQ0RHNDj2ACAACUjGyCCVXQOjo63MGDB8/La5W5eKUuifJItvlF+VS503umdcJlNq13k7TNTOXF15d4uUnr9rcsnh5Py7R+Oknlhmy5lZ0k3X7F30NheenW70+mfOGyXKZHjBjhJkyY4MaOHUswAQAAMJiyCSakq6vLnT592rdMqMKmiltYkeuPrWPvSawsWx7mTVovnpapbOlveRLl13q2brwMS0ti6ZY/vm5cum2E8/Ey+xOWZ+vmK1w/3fbDfTW5bjtdGRZUWlmWJ55f+err611dXV2UkhuCCQAAgCxlG0yYsDInNh9W5uKVPZPtesaWpVsvm/UtLZyOy2ZZpjxxuayjPJIpX1hOmD++bn9lWTlheZI0b+Jlm6T1k9YL2fIwb3w9E1/fthGfjsu0LFsEEwAAAFnKNZgAyt1wBxPczQkAAJQ1jZ/Yt29fNJe9fNZJR/ugF1BuCCYAAEDZ2rJli1u0aJG7/fbb3dVXX+3a29ujJf1bsmRJTvkz2bx5s1u9enU0B5QPujkBAICSkWs3JwUQ9957r2ttbXUbNmxwzc3Nbt68eW7NmjXu6NGj7uabb3ZNTU1+mVoOVq1a5ZcpTYHIpk2b/LqyYsUKN3v2bLdjxw63du1at337dl/ewoUL3eLFi/12lEfrivJu3brV3XHHHW737t3ugQce8PlVnrajQMX2Q+WpJURlK13zQDbo5gQAADAIVEkXCwaWLl3qrrvuOp+uabU8rFu3zs+rEq8K/vr1631+BRlxCi6uv/56v/z+++/3lX7bhta3d62rZarkaXsqUxSs3H333W7Pnj2+rOXLl/t9UB4FFVrH1gdKBcEEAAAoS2oFUGXfxiqoEq+WArUoqIKvB9sZtVYoSFDe+fPn++k5c+ZES3spzV7pqFXC8qhlIqRtiNJtv6wlQq0bYvsBlAqCCQAAULZ0lV9jJtQCYV2Q9u7d69ra2hJv8alAQnn1staGdFTGxo0b3W233dbXtSkTdXNSEKOARtvRE48VUCiwKORgb2AoMWYCAACUjHxuDRte/VelX9NqpVDLhbUkqFJvLQLqgmTLwtYJraN5rS/Kr7y2vloVLI/eFWxYNyhj27VWCq2vdbVvlpeWCeSC50wAAABkKZ9gAihnDMAGAAAAUJIIJgAAAADkhWACAAAAQF4YMwEAAEpGLmMmNLD5yJEj0RxQ3FpaWrK6K1gcA7ABAACylEswodu22vMbgGK3a9cu9453vCOayx7BBAAAQJayDSZ6enrcpk2b3K233hqlAMXtzjvv9E9DV3CQC+7mBAAAUGB6IN2ZM2eiOaD4dXd3Jz5IsdgRTAAAgLJTipUyVLZS/c0STAAAgLJTVVVFQIGSot9sKSKYAAAAZUeBRKlWzlCZaJkAAAAoEgQSKEWlGFAQTAAAAADIC8EEAAAAgLwQTAAAgLLD4GuUGnXNK8XueQQTAACg7DBmAqWGAdgAAAAAKgrBBAAAAFAEuJsTAABAEWDMBEoNYyYAAACKBGMmgKFBMAEAAAAgLwQTAACgLNHVCaVEv9dS/M1Wtbe38y8NAACUhM7OTv/qz5kzZ9yWLVvcM88843p6enyauj6psmbv6dIkmzz9UX6Jr5MpPUxL2l6YlrQ8E8sfL0MyzcfXiQvzSFK+dMuyWbc/VkYmVr5Jlz/bsvLZT7F1w3eprq5206dPdwsXLnQjRozwadnSug0NDdHc0COYAAAAJSOXYOLw4cPu0KFDrqurq6/SZjSvIMPSrXJnwopeJvnk03u47XC7YVq83KQ0zSs9aVlcPE8u6+ZC5amCG35GY9sUy2fzJkzXy8qIr5u0z+nS8xFuT5LKTpcW/1xJ+ax8vdfU1Lhx48a5sWPH+ulcEEwAAABkKdtgQpU0BRHKG6/UhayCF6ZbJS+cDtMknq73JEnLksozStfLWlMkzBuWFV/fliXljbN9CIXr2fL4u6RLM/FlJlzPJK0fCvNnymv5wncJ81qaCcsNpyW+Xjxv+C7x/JIpzeaN5mtra119fX2Ukj2CCQAAgCxlG0ykE1YAM4nnC+ezLSMf6coeaHqmfJJr2aJlmdaPi5eXNC+WFl9uLD3d8kxyWVd5JNdtZKtQ5Q93MMEAbAAAUDGyrbjF84Xzg1W5lHRlDzQ9U758yrZlmdaPi+dLmg/T0pVr6emWZ5LLusqTzzayNdjlDxWCCQAAAAB5IZgAAAAAkBeCCQAAgMDy5ctdR0dHNJedo0ePujVr1kRz52pvb8+5PKBU1Nxyyy0fi6YBAACKWnd3t39lS5X473znO76y39bW5vbs2eNGjhzpB3E/9dRT7vTp0z6PnknR3NzsXxMmTHATJ050jz76qA8E1K9d62l95dV6yhOWr/K+/OUvu6VLl/q0H/7wh/7OPFr3/e9/v9/OzJkzfT7lt20BA6XfmO4ENVxomQAAAGXr1ltvdfv373cbNmxw999/v9uxY4dbt26dW716tQ8QlLZixQofACxevNi/33777T74WLJkiXvggQf60vRu6xnN792715cjWk/btPI0L5rft2+fb/VQ5c+2CZQ6ggkAAFCWVJHfuXOnr8SLAgm1HGzfvt1X5K+77jqfvmDBAp8+b968cwIFWbt2rZs9e7bPs3nzZl+G8hkFG6tWrXI333yzn1drw5w5c3w5atWQ1tZWv472Q2navqg8oNQRTAAAgLLV1NTkK/p6KWCw8Qt6t8q+pSlQSOeaa67xrRsKFBQcGE2rZWL37t1+XgGC5hVgaNtG5be0tPj8ClDUMqEygVJHMAEAAMqSWglUqb/tttt81ybNr1+/3t1zzz1u5cqVfpyEqAVD3Y+WLVvmWxDUEqG8YQuEphUQLFy4MErppcBAXZ3UAqI88+fP9+Vpm5pXOVpH21UgouXalvID5YAnYAMAgJIx0CdgxynIEOumlI7yqUvTtm3bohSgOAz3E7AJJgAAQMkodDBhXZ3CrktJ1AVKLQth1yWgGBBMAAAAZKnQwQRQ6oY7mGDMBAAAAIC8EEwAAAAAyAvBBAAAAIC8MGYCAACUjGzHTOihcY899pgbM2ZMlAIUr3Hjxp1zK+JcMAAbAAAgS9kEE2fPnnWPPPKI+73f+z03Y8aMKBUoXmvWrHE33HCDq6qqilKyxwBsAACAAlIwwR2fUEr0e9XvthQRTAAAgLKiq7s9PT3RHFD8Svn3SjABAAAAIC8EEwAAoOzk0/ccQO4IJgAAQNkp1f7nQKkhmAAAAGWHlglgaBBMAACAskPLBDA0CCYAAEBZUSBBywQwNAgmAABAWVEgQcsESg3PmQAAAABQUQgmAABAWaGbE0pRqf5mCSYAAEDZoZsTMDQIJgAAQFmhVQIYOgQTAAAAAPJCMAEAAAAgL1Xt7e10KgQAACWhs7PTvzLReInvf//7bvLkya6lpSVKBYrXtm3b3J/8yZ+46urcr/NrnYaGhmhu6BFMAACAkpFtMHH48GH32GOPudOnT/eNobC7PMXv9hSmh5LSJL6uiZfd37rG8sXLTbedbIT7El/Xyk3aRriepZmkvKF065mw7PjypLRQvNwwvy0TK98k5TfxNJsP3yVpOnw36dLjrCwzYsQId9FFF7kLL7yQYAIAAGAwZRtMnDp1ygcUZ86c6bdyZ7KtDGYj3zLCfZCB7kdYlsTn49ux9zCP2Hrx91BSWii+3KaVLknlxpclia9j0qWHbHk22wkpj1X84/njZcS3EVdTU+Oam5tdY2Njv/ubhGACAAAgS9kEE6KKW3d3d990LpU0y59uvUzl2Xohmw/XCfNlKi+J5Y+vl1SO5UtaFqZpOhTPayxfuDxd2ZJtejrKF983216YbuXZMhPOx5f1Jym/bTMpvb/tZNq+AoJ8WiWEYAIAACBL2QYTQKUY7mCCuzkBAAAAyAvBBAAAAIC8EEwAAICy1dHR4davX+/WrVvn9u7d69M0r3Q5evSoX7Zjxw7/Mvfff79rb2+P5gCkQzABAADK1q233ur279/v2tra3PLly33AoCBBwYJs2bKlL8hQUCEKMG6//XY/DSAzggkAAFCW9uzZ4wOFVatWueuuu87dfffdrqmpyV1zzTU+iBC9L1y40M2bN8/nV4uFpbW2tvo8ANIjmAAAAGVL9+83c+bM8S8LHNRCsXPnTh9oiN7VYmHBBID+EUwAAICypJYFdVmysQ+rV692W7du9dNLly51K1ascAsWLPDzYi0WYYABIDOCCQAAUJbUKrF27Vo/VuLqq6/2Dwyz4GH+/Pk+0Lj++uv9vKjFQggkgOzx0DoAAFAyeGgdcC4eWgcAAACgJBFMAAAAAMgLwQQAAACAvDBmAgAAlIxsx0zoeRG7d++O5oDipocq5vtck+EeM0EwAQAASka2wcQjjzzi3vjGN7oZM2ZEKUDxuvPOO90NN9wQzeWGAdgAAAAFdPbsWe74hJKi32tPT080V1oIJgAAQNkp1YoZKlN3d3c0VXoIJgAAQNlR6wSAwUcwAQAAAAyzUg2ACSYAAEDZqaqqiqaA0lCqv1mCCQAAUHbo5gQMDYIJAAAAAHkhmAAAAGWHbk7A0CCYAAAAZUVdnOjmBAwNggkAAFBW1CpBywRKSSkHvwQTAACg7NAygVJSysEvwQQAACgrBBLA0CGYAAAAZYduTig1pRoEE0wAAICyokCC1gmUmlINgAkmAAAAAOSlqr29ndAdAACUhM7OTv/KRK0S3//+992JEyfcmDFjolSgeD3xxBPuT//0T111de7X+bVOQ0NDNDf0CCYAAEDJyDaYOHz4sNu/f787deqUT7MuJJm6QCk9qatJmJ4uTyaZ1smnvFCuZWte6YXcbq5lhfltf8pB/HvI9nupra11kydPdhMmTCCYAAAAGEzZBBOiIOLIkSOuq6vrvAqdVV7DiqxNh++hdGli6bZuKJuywvlwOixP76o09vT09FteNuLrxLebbjui/dB0pu0q3fJnw/ImbTPdNvLdvpaFn8/KyVReyMoNtxEvK05pts14Hn2fTU1NrrGxMXHd/hBMAAAAZCnbYEIVNlXerLInVpGLS6rAxfOFlcB0ZepdFTubDqXbdihdnnDbJswXpovlDdeJp4XvEp8Wmw+F+Yzll3h56fKnK8PWsWkTTwvLsGUhKycsT9KVGebNJk88TcJ0k5SWpKampi9vrggmAAAAspRtMAFUiuEOJribEwAAAIC8EEwAAAAAyAvBBAAAAIC8EEwAAAAAyAvBBAAAAIC8EEwAAAAAyAvBBAAAAIC8EEwAAAAAyAvBBAAAAIC8EEwAAAAAyAvBBAAAAIC8VLW3t5+NpgEAAIpaZ2enf/Xn7JnjznUfi+bg1Yx2VSMaoxmUi+rqatfQ0BDNDT2CCQAAUDKyCSbOnj3ruv9zhXMnnoxSYKp/c72rHjklmkM5GO5ggm5OAACgrHR1dbmzXbRKJPHfTSrYAgqFYAIAAJQVVZh7znZHcwjpuwEKiWACAACgUtAogQIjmAAAAACQF4IJAABQNhgPkNlZmiZQYAQTAAAAAPJCMAEAADBAI8fNddN+9zP+VV3XFKW+YswlNySmD7Wq1H9AIRFMAACAslFVNTyV5clXfNgd2PkJd+SJ+9y4OTe5iZf9hQ8sLMgYM/NGV1PX4sbPvcnP145uc1Ou+IifBkoZwQQAAMAAdXcedT2dHa7z2D5XN3q6a5x8pQ8uFDDovbvziGucMt+Nnn5NKvfZVHBxg2tIze//0Yd6CxgqNEygwAgmAAAABkjdh9SVSS0Pxw884tMsuFDrhAKM7tR817F2d+SJ+13Hs9/zAciQO8sgdRQWwQQAACgbw1VRVgtD9+mj7ujT3/NdnV547As+Xe91jW3u+Ue/kAoyfuIO7fmaq21s9UHGC49+0ecZSrqb03B1BUN5qmpvbyc8BQAAJaGzs9O/0lEwceLECTdi9393NWdeilJhTr7qbjd63MUEFGWkurraNTQ0RHNDj5YJAABQVujGAwwdggkAAID/v537CbHrquMAfkJhGsFpNlnUSaAaaWpBW6yJIOKfZDCEKCEKkkhIFtJCoSsdpLqIaMFWGjD+gQq6EApFumoI2oUYo122UWxTabVK6+KNGhoXToI05I/nd/JOvLl900wOz5np8/MJl3vOPX/ufSGB8+Xc9/5P+GlYxk2YAAAmSrz2ASwP/9sAgIkR3wXwmtPi4gvYME7CBAAwMQQJWF7CBAAwMfxK0VvznQnGzU/DAgBvG0v9adiFV4+mi/+eT5cvLbLMiTV1NNVzX/96tz6qravbL/Tn7/fvi/6j7tedb1R7Naqe3TR1S3rHu/eldevWCV0TZKV/GlaYAADeNq4XJkK0nzlzJp07dy5dunRpeDUvenoL6Age9TsWta3/mlR3TLdf6I/vt3fVeRebr7aH/hzRFgvG+lmud6+u7rxr165N69evX9GFJ+MnTAAALNFSwkQsui9evJguXLhwzWK6qgvxUeeqW+8u2vt9++Pj3G0P3b5dtd+ocfUcC8Varmr/frmq/fvXY66pqalyZnIIEwAAS7SUMFGNWmh31fal9OuqY0aVw6h67dc/h265qmOrOqaWQ7fe71/Vtv4YJsdKhwnRFACYSNdbONf2pfTrHt1r/XIYVV/s3C93r3V1r/X7jOpf1bb+GBgXYQIAAGgiTAAAAE2ECQAAoIkwAQAANBEmAACAJn4aFgAAaGJnAgAAaCJMAAAATYQJAACgiTABAAA0ESYAAIAmwgQAANBEmAAAAJoIEwAAQBNhAgAAaCJMAAAATYQJAACgyZrBYHB5WAYAWJV++OOfpFf+/JdhDbhRO3fMph2z24a18REmAIBVb+7BQ+n5Uy8Oa8CNOrh/Xz72Dmvj4zUnAACgiTABAAA0ESYAAIAmwgQAANBEmAAAAJoIEwAAQBNhAgAAaCJMAAAATYQJAACgiTABAAA0ESYAAIAmwgQAANBEmAAAmEAbZt6VvvqVL6UfHHk0ve+O24dXUy5vTtu3fWJYW9wD9987LI0Wc/Tnjns+/NChctT7X8/09PTI5wx7dn+6XFtsnhj7wP33lWeNviy/m+bm5r4xLAMArEq/+OWJ9I/Tp4c1liIW2UeP/SwfT5eFdizu9+z+TGm7+eapNJvDwGfLYn1zOQ/m/5Z27dyR7v3iwfTqa6+lj330I2nrlg+lu+/6QBm7sHC29Hv9zD9Lee/nP5fm5/+ezp9/I/f/a5n34Ye+nr7z/cfSsyd/lz685Z4yx9FjPy9h4O673p9e/uMraV8eV+8Rc0WfO3Ng+Oa3Hi33iSPuE0Fh03tuK3127fxUeb4rz3t7euHUH8r9fvTY99LxE79Ja/PneeP8+fKZnsv35s3i7z+OcbMzAQAwgWJRPsiL/dltH08bZ2ZKPRbe83lRHuUIEY8c/m5ZnB8/8Uypb80B4LmTvy3jYzH/7cNHyrUID9vzPNu3fbIs6kNc27rlg6VfHGF6+p1l/jgiRIRY4Nf77dm9Kx3Yvy+Hij9d3fmIZ4rwEYEjniVCUPhabzcixsc8MXetHz/x6xJEXsohJdrqc7B8hAkAgAkUi/SDeeG+Jpcv5z99CwsLw+NsOYcYEwvy2MG4JZ9jd6Fen81BIhbvVbzm9Kt8PUJAHR+7Agf2783XvlzO4V+5LQJIzBHtESRih+LxJ54s7RFWNuSwczKHmDjHXNH38Sd+WtqrCBFP5YByYP8XSr3eM3ZPNuYgEWGC5bdmMBi8+V8XAMAqMvfgofT8qReHNZbqykI9diSeKbsGERxClEMs0Gdye/d6BIja/847NucgMF92OOJ7EI8cPnJ1ZyDGRd8IB9FeF/exExEBIoJD7B5EezxHiGt1XNzjv4Hg2ueM+76Ux4V4tg0zt+Y5z169Xp8hXqt6NoeQaNuY+zx17Omrc3KtCJYHhwFvnIQJAGDVEyZWVgSACAaxE7HaXHmN6tbyqlTseDDa/ypMeM0JAIC3FDsBqzFIhCuvRD0pSKwQYQIAAGgiTAAAAE2ECQAAoIkwAQAANBEmAACAJsIEAADQRJgAAACaCBMAAEATYQIAAGgiTAAAAE2ECQAAoIkwAQAANBEmAACAJsIEAADQRJgAAACarBkMBpeHZQCAVen3L5xKp0+/PqwBN+q9m27Lx6ZhbXyECQAAoInXnAAAgCbCBAAA0ESYAAAAmggTAABAE2ECAABoIkwAAABNhAkAAKCJMAEAADQRJgAAgCbCBAAA0ESYAAAAmggTAABAg5T+A2ub9V+IoHlEAAAAAElFTkSuQmCC;" vertex="1" parent="1">
          <mxGeometry x="180" y="110" width="787" height="781" as="geometry" />
        </mxCell>
        <mxCell id="TgTsaI6apELg38WCedww-4" style="edgeStyle=orthogonalEdgeStyle;rounded=0;orthogonalLoop=1;jettySize=auto;html=1;strokeWidth=4;" edge="1" parent="1" source="TgTsaI6apELg38WCedww-3">
          <mxGeometry relative="1" as="geometry">
            <mxPoint x="253.8881963094077" y="224.98719914754236" as="targetPoint" />
          </mxGeometry>
        </mxCell>
        <mxCell id="TgTsaI6apELg38WCedww-5" style="edgeStyle=orthogonalEdgeStyle;rounded=0;orthogonalLoop=1;jettySize=auto;html=1;strokeWidth=4;" edge="1" parent="1" source="TgTsaI6apELg38WCedww-3">
          <mxGeometry relative="1" as="geometry">
            <mxPoint x="752.3729985555015" y="315.138718922933" as="targetPoint" />
            <Array as="points">
              <mxPoint x="698" y="65" />
              <mxPoint x="698" y="315" />
            </Array>
          </mxGeometry>
        </mxCell>
        <mxCell id="TgTsaI6apELg38WCedww-3" value="&lt;span style=&quot;font-size: 17px;&quot;&gt;Images of the product&lt;/span&gt;" style="text;html=1;strokeColor=none;fillColor=none;align=center;verticalAlign=middle;whiteSpace=wrap;rounded=0;" vertex="1" parent="1">
          <mxGeometry x="580" y="50" width="100" height="30" as="geometry" />
        </mxCell>
        <mxCell id="TgTsaI6apELg38WCedww-8" style="edgeStyle=orthogonalEdgeStyle;rounded=0;orthogonalLoop=1;jettySize=auto;html=1;strokeWidth=4;" edge="1" parent="1" source="TgTsaI6apELg38WCedww-6">
          <mxGeometry relative="1" as="geometry">
            <mxPoint x="739.4942754109702" y="595.4417330423992" as="targetPoint" />
          </mxGeometry>
        </mxCell>
        <mxCell id="TgTsaI6apELg38WCedww-9" style="edgeStyle=orthogonalEdgeStyle;shape=connector;rounded=0;orthogonalLoop=1;jettySize=auto;html=1;labelBackgroundColor=default;strokeColor=default;strokeWidth=4;align=center;verticalAlign=middle;fontFamily=Helvetica;fontSize=11;fontColor=default;endArrow=classic;" edge="1" parent="1" source="TgTsaI6apELg38WCedww-6">
          <mxGeometry relative="1" as="geometry">
            <mxPoint x="527.3731002807617" y="393.1690127054851" as="targetPoint" />
          </mxGeometry>
        </mxCell>
        <mxCell id="TgTsaI6apELg38WCedww-6" value="&lt;span style=&quot;font-size: 17px;&quot;&gt;Form to order products in the cart&lt;/span&gt;" style="text;html=1;strokeColor=none;fillColor=none;align=center;verticalAlign=middle;whiteSpace=wrap;rounded=0;" vertex="1" parent="1">
          <mxGeometry x="40" y="580" width="100" height="30" as="geometry" />
        </mxCell>
        <mxCell id="TgTsaI6apELg38WCedww-11" style="edgeStyle=orthogonalEdgeStyle;shape=connector;rounded=0;orthogonalLoop=1;jettySize=auto;html=1;labelBackgroundColor=default;strokeColor=default;strokeWidth=4;align=center;verticalAlign=middle;fontFamily=Helvetica;fontSize=11;fontColor=default;endArrow=classic;entryX=0.724;entryY=0.201;entryDx=0;entryDy=0;entryPerimeter=0;exitX=0.25;exitY=1;exitDx=0;exitDy=0;" edge="1" parent="1" source="TgTsaI6apELg38WCedww-10" target="TgTsaI6apELg38WCedww-2">
          <mxGeometry relative="1" as="geometry">
            <mxPoint x="740" y="270" as="targetPoint" />
            <mxPoint x="720" y="70" as="sourcePoint" />
            <Array as="points">
              <mxPoint x="720" y="70" />
              <mxPoint x="720" y="267" />
            </Array>
          </mxGeometry>
        </mxCell>
        <mxCell id="TgTsaI6apELg38WCedww-12" style="edgeStyle=orthogonalEdgeStyle;shape=connector;rounded=0;orthogonalLoop=1;jettySize=auto;html=1;labelBackgroundColor=default;strokeColor=default;strokeWidth=4;align=center;verticalAlign=middle;fontFamily=Helvetica;fontSize=11;fontColor=default;endArrow=classic;" edge="1" parent="1">
          <mxGeometry relative="1" as="geometry">
            <mxPoint x="304.89565501493576" y="249.00327615176934" as="targetPoint" />
            <mxPoint x="815" y="30" as="sourcePoint" />
            <Array as="points">
              <mxPoint x="815" y="10" />
              <mxPoint x="305" y="10" />
            </Array>
          </mxGeometry>
        </mxCell>
        <mxCell id="TgTsaI6apELg38WCedww-10" value="&lt;span style=&quot;font-size: 17px;&quot;&gt;Input for the amount of that product the user is going to buy&lt;/span&gt;" style="text;html=1;strokeColor=none;fillColor=none;align=center;verticalAlign=middle;whiteSpace=wrap;rounded=0;" vertex="1" parent="1">
          <mxGeometry x="720" y="40" width="190" height="30" as="geometry" />
        </mxCell>
        <mxCell id="TgTsaI6apELg38WCedww-14" style="edgeStyle=orthogonalEdgeStyle;shape=connector;rounded=0;orthogonalLoop=1;jettySize=auto;html=1;labelBackgroundColor=default;strokeColor=default;strokeWidth=4;align=center;verticalAlign=middle;fontFamily=Helvetica;fontSize=11;fontColor=default;endArrow=classic;" edge="1" parent="1" source="TgTsaI6apELg38WCedww-13">
          <mxGeometry relative="1" as="geometry">
            <mxPoint x="796.5086408342634" y="253.6650056384858" as="targetPoint" />
          </mxGeometry>
        </mxCell>
        <mxCell id="TgTsaI6apELg38WCedww-13" value="&lt;span style=&quot;font-size: 17px;&quot;&gt;Update button to update the quantity&amp;nbsp;of the product once the user has changed&amp;nbsp;the amount&amp;nbsp;&lt;/span&gt;" style="text;html=1;strokeColor=none;fillColor=none;align=center;verticalAlign=middle;whiteSpace=wrap;rounded=0;" vertex="1" parent="1">
          <mxGeometry x="990" y="210" width="200" height="30" as="geometry" />
        </mxCell>
        <mxCell id="TgTsaI6apELg38WCedww-23" style="edgeStyle=orthogonalEdgeStyle;shape=connector;rounded=0;orthogonalLoop=1;jettySize=auto;html=1;labelBackgroundColor=default;strokeColor=default;strokeWidth=4;align=center;verticalAlign=middle;fontFamily=Helvetica;fontSize=11;fontColor=default;endArrow=classic;" edge="1" parent="1" source="TgTsaI6apELg38WCedww-21">
          <mxGeometry relative="1" as="geometry">
            <mxPoint x="388.9328991117932" y="340.24506051199774" as="targetPoint" />
            <Array as="points">
              <mxPoint x="389" y="385" />
            </Array>
          </mxGeometry>
        </mxCell>
        <mxCell id="TgTsaI6apELg38WCedww-21" value="&lt;span style=&quot;font-size: 17px;&quot;&gt;Delete button to delete the quantity&amp;nbsp;of the product once the user has changed&amp;nbsp;the amount&amp;nbsp;&lt;/span&gt;" style="text;html=1;strokeColor=none;fillColor=none;align=center;verticalAlign=middle;whiteSpace=wrap;rounded=0;" vertex="1" parent="1">
          <mxGeometry x="-70" y="380" width="200" height="30" as="geometry" />
        </mxCell>
        <mxCell id="TgTsaI6apELg38WCedww-25" style="edgeStyle=orthogonalEdgeStyle;shape=connector;rounded=0;orthogonalLoop=1;jettySize=auto;html=1;labelBackgroundColor=default;strokeColor=default;strokeWidth=4;align=center;verticalAlign=middle;fontFamily=Helvetica;fontSize=11;fontColor=default;endArrow=classic;" edge="1" parent="1" source="TgTsaI6apELg38WCedww-24">
          <mxGeometry relative="1" as="geometry">
            <mxPoint x="817.1932525634766" y="493.8209915161133" as="targetPoint" />
          </mxGeometry>
        </mxCell>
        <mxCell id="TgTsaI6apELg38WCedww-24" value="&lt;span style=&quot;font-size: 17px;&quot;&gt;Total of all the products&amp;nbsp;&lt;/span&gt;" style="text;html=1;strokeColor=none;fillColor=none;align=center;verticalAlign=middle;whiteSpace=wrap;rounded=0;" vertex="1" parent="1">
          <mxGeometry x="1030" y="480" width="200" height="30" as="geometry" />
        </mxCell>
        <mxCell id="TgTsaI6apELg38WCedww-29" style="edgeStyle=orthogonalEdgeStyle;shape=connector;rounded=0;orthogonalLoop=1;jettySize=auto;html=1;labelBackgroundColor=default;strokeColor=default;strokeWidth=4;align=center;verticalAlign=middle;fontFamily=Helvetica;fontSize=11;fontColor=default;endArrow=classic;" edge="1" parent="1">
          <mxGeometry relative="1" as="geometry">
            <mxPoint x="492.3287317612594" y="381.6236590217143" as="targetPoint" />
            <mxPoint x="650" y="910" as="sourcePoint" />
            <Array as="points">
              <mxPoint x="641" y="382" />
            </Array>
          </mxGeometry>
        </mxCell>
        <mxCell id="TgTsaI6apELg38WCedww-26" value="&lt;span style=&quot;font-size: 17px;&quot;&gt;Submit button to send the order and delete everything in the users cart&lt;/span&gt;" style="text;html=1;strokeColor=none;fillColor=none;align=center;verticalAlign=middle;whiteSpace=wrap;rounded=0;" vertex="1" parent="1">
          <mxGeometry x="510" y="940" width="200" height="30" as="geometry" />
        </mxCell>
        <mxCell id="TgTsaI6apELg38WCedww-34" style="edgeStyle=orthogonalEdgeStyle;shape=connector;rounded=0;orthogonalLoop=1;jettySize=auto;html=1;labelBackgroundColor=default;strokeColor=default;strokeWidth=4;align=center;verticalAlign=middle;fontFamily=Helvetica;fontSize=11;fontColor=default;endArrow=classic;" edge="1" parent="1" source="TgTsaI6apELg38WCedww-31">
          <mxGeometry relative="1" as="geometry">
            <mxPoint x="879.4946899414062" y="298.2012023925781" as="targetPoint" />
            <Array as="points">
              <mxPoint x="959" y="355" />
              <mxPoint x="959" y="298" />
            </Array>
          </mxGeometry>
        </mxCell>
        <mxCell id="TgTsaI6apELg38WCedww-31" value="&lt;span style=&quot;font-size: 17px;&quot;&gt;Products images switch places in order to scale on smaller devices&lt;/span&gt;" style="text;html=1;strokeColor=none;fillColor=none;align=center;verticalAlign=middle;whiteSpace=wrap;rounded=0;" vertex="1" parent="1">
          <mxGeometry x="1030" y="340" width="190" height="30" as="geometry" />
        </mxCell>
        <mxCell id="TgTsaI6apELg38WCedww-36" style="edgeStyle=orthogonalEdgeStyle;shape=connector;rounded=0;orthogonalLoop=1;jettySize=auto;html=1;labelBackgroundColor=default;strokeColor=default;strokeWidth=4;align=center;verticalAlign=middle;fontFamily=Helvetica;fontSize=11;fontColor=default;endArrow=classic;" edge="1" parent="1" source="TgTsaI6apELg38WCedww-35">
          <mxGeometry relative="1" as="geometry">
            <mxPoint x="926.553513470818" y="450.07282750746776" as="targetPoint" />
            <Array as="points">
              <mxPoint x="980" y="595" />
              <mxPoint x="980" y="450" />
            </Array>
          </mxGeometry>
        </mxCell>
        <mxCell id="TgTsaI6apELg38WCedww-37" style="edgeStyle=orthogonalEdgeStyle;shape=connector;rounded=0;orthogonalLoop=1;jettySize=auto;html=1;labelBackgroundColor=default;strokeColor=default;strokeWidth=4;align=center;verticalAlign=middle;fontFamily=Helvetica;fontSize=11;fontColor=default;endArrow=classic;" edge="1" parent="1" source="TgTsaI6apELg38WCedww-35">
          <mxGeometry relative="1" as="geometry">
            <mxPoint x="915.8583589441637" y="810.500576243681" as="targetPoint" />
            <Array as="points">
              <mxPoint x="981" y="595" />
              <mxPoint x="981" y="811" />
            </Array>
          </mxGeometry>
        </mxCell>
        <mxCell id="TgTsaI6apELg38WCedww-35" value="&lt;span style=&quot;font-size: 17px;&quot;&gt;Sections&amp;nbsp;go underneath&amp;nbsp;each other&amp;nbsp;so phones can see all content&amp;nbsp;&lt;/span&gt;" style="text;html=1;strokeColor=none;fillColor=none;align=center;verticalAlign=middle;whiteSpace=wrap;rounded=0;" vertex="1" parent="1">
          <mxGeometry x="1010" y="580" width="190" height="30" as="geometry" />
        </mxCell>
        <mxCell id="TgTsaI6apELg38WCedww-38" value="&lt;font style=&quot;font-size: 18px;&quot;&gt;I decided to change the way the cart page looks later on in development as it would be much more user friendly if a user can make an order on the same page&lt;/font&gt;" style="text;html=1;strokeColor=none;fillColor=none;align=center;verticalAlign=middle;whiteSpace=wrap;rounded=0;fontSize=11;fontFamily=Helvetica;fontColor=default;" vertex="1" parent="1">
          <mxGeometry x="270" y="680" width="260" height="30" as="geometry" />
        </mxCell>
        <mxCell id="TgTsaI6apELg38WCedww-39" value="&lt;font size=&quot;1&quot; style=&quot;&quot;&gt;&lt;b style=&quot;font-size: 31px;&quot;&gt;Cart Page&amp;nbsp;&lt;/b&gt;&lt;/font&gt;" style="text;html=1;strokeColor=none;fillColor=none;align=center;verticalAlign=middle;whiteSpace=wrap;rounded=0;fontSize=11;fontFamily=Helvetica;fontColor=default;" vertex="1" parent="1">
          <mxGeometry x="500" y="-80" width="170" height="30" as="geometry" />
        </mxCell>
      </root>
    </mxGraphModel>
  </diagram>
</mxfile>
